<?xml version="1.0" encoding="UTF-8"?>
<svg version="1.1" xmlns="http://www.w3.org/2000/svg" width="474" height="266">
<path d="M0 0 C156.42 0 312.84 0 474 0 C474 87.78 474 175.56 474 266 C317.58 266 161.16 266 0 266 C0 178.22 0 90.44 0 0 Z " fill="#2691CB" transform="translate(0,0)"/>
<path d="M0 0 C38.94 0 77.88 0 118 0 C116.15799996 22.71800052 114.28373211 45.41349599 112.12921143 68.10107422 C111.86957227 70.84212305 111.61256425 73.5834162 111.35553551 76.32471085 C109.98902436 90.89232252 108.58318506 105.45412584 107 120 C105.57853951 120.480798 104.15646153 120.95977064 102.73413086 121.43798828 C101.54635292 121.83837814 101.54635292 121.83837814 100.33457947 122.24685669 C97.11295763 123.2861629 93.8540291 124.0878195 90.5625 124.875 C83.72678974 126.53067137 76.95681041 128.37284539 70.20336914 130.33740234 C61.27045162 132.88559714 55.07021351 132.90681821 46.125 130.375 C45.11574463 130.10010742 44.10648926 129.82521484 43.06665039 129.54199219 C40.0394188 128.71148517 37.01890469 127.86023908 34 127 C33.13197754 126.7534668 32.26395508 126.50693359 31.36962891 126.25292969 C24.53400351 124.29989386 17.74140938 122.26035143 11 120 C9.49384196 109.49490401 8.40249324 99.01410299 7.5625 88.4375 C7.43595078 86.8836 7.30907113 85.32972688 7.18188477 83.77587891 C6.50472013 75.46543817 5.85466391 67.15293208 5.2109375 58.83984375 C5.07999955 57.15633116 4.94905881 55.47281879 4.81811523 53.78930664 C4.5714239 50.61560641 4.32920073 47.44161328 4.09008789 44.26733398 C3.46044548 36.03475803 2.70668956 27.83170202 1.72593689 19.63278198 C0.95689811 13.08649434 0.50733607 6.59536896 0 0 Z " fill="#1472B6" transform="translate(178,83)"/>
<path d="M0 0 C24.09 0 48.18 0 73 0 C73 9.54402362 72.86485031 18.63530098 71.94140625 28.06640625 C71.8327977 29.22953842 71.72418915 30.39267059 71.61228943 31.59104919 C71.38433944 34.01877012 71.15312175 36.44618635 70.91870117 38.87329102 C70.56034656 42.58480339 70.21194076 46.29714867 69.86523438 50.00976562 C69.64119504 52.38286639 69.41660551 54.75591528 69.19140625 57.12890625 C69.08719864 58.2320668 68.98299103 59.33522736 68.87562561 60.47181702 C68.40297965 65.34933772 67.90840348 70.17967653 67 75 C62.981265 76.15328035 58.95967577 77.296283 54.9375 78.4375 C53.2369043 78.92573242 53.2369043 78.92573242 51.50195312 79.42382812 C42.41916983 81.99242865 35.81554397 83.75603579 26.75 80.75 C25.25678077 80.28168918 23.76329026 79.81424249 22.26953125 79.34765625 C21.54588379 79.1170752 20.82223633 78.88649414 20.07666016 78.64892578 C17.21619855 77.75507356 14.33160946 76.96451772 11.4375 76.1875 C10.56996094 75.95417969 9.70242187 75.72085938 8.80859375 75.48046875 C7.91333984 75.24263672 7.91333984 75.24263672 7 75 C5.69613181 66.92067387 4.75187364 59.18816997 5 51 C9.95 51 14.9 51 20 51 C20 54.96 20 58.92 20 63 C21.423125 63.309375 22.84625 63.61875 24.3125 63.9375 C26.95517072 64.51199363 29.42906918 65.14302306 32 66 C37.43715218 66.39626702 42.01100289 66.3559153 47 64 C48.99539654 63.64013371 50.99532968 63.30398689 53 63 C53.06058594 62.04738281 53.12117188 61.09476563 53.18359375 60.11328125 C53.26738281 58.85902344 53.35117188 57.60476562 53.4375 56.3125 C53.51871094 55.07113281 53.59992188 53.82976562 53.68359375 52.55078125 C54 49 54 49 55 44 C43.45 44 31.9 44 20 44 C19.67 39.05 19.34 34.1 19 29 C31.54 29 44.08 29 57 29 C57 25.04 57 21.08 57 17 C57.495 15.515 57.495 15.515 58 14 C57.30064835 14.00222061 56.60129669 14.00444122 55.88075256 14.00672913 C49.30295079 14.0267328 42.72515746 14.04197452 36.14733219 14.05181217 C32.76528187 14.05703975 29.3832566 14.06413511 26.0012207 14.07543945 C22.11670223 14.08834267 18.23219403 14.09322924 14.34765625 14.09765625 C13.12788589 14.10281754 11.90811554 14.10797882 10.65138245 14.11329651 C8.96975258 14.11340981 8.96975258 14.11340981 7.25415039 14.11352539 C6.26153702 14.115746 5.26892365 14.11796661 4.24623108 14.12025452 C2 14 2 14 1 13 C0.67 8.71 0.34 4.42 0 0 Z " fill="#F6FCFB" transform="translate(200,107)"/>
<path d="M0 0 C15.84 0 31.68 0 48 0 C46.87568174 21.36204695 46.87568174 21.36204695 45.5625 31.875 C44.4374579 41.38690482 43.60094011 50.87849444 43 60.4375 C42.10400553 74.68139044 40.63701283 88.82294404 39 103 C36.167031 103.79298919 33.33364215 104.58442272 30.5 105.375 C29.70851563 105.59671875 28.91703125 105.8184375 28.1015625 106.046875 C24.27776217 107.11252427 20.45295134 108.14770325 16.59765625 109.09375 C13.05312365 109.91961078 13.05312365 109.91961078 9.9375 111.125 C7 112 7 112 0 112 C0 107.05 0 102.1 0 97 C23.35135135 89 23.35135135 89 30 89 C30.07347656 87.53554443 30.07347656 87.53554443 30.1484375 86.04150391 C30.78034357 74.11940831 31.85000964 62.25684983 33 50.375 C33.26981465 47.57652529 33.53863144 44.77796794 33.80493164 41.97915649 C33.96867604 40.25904481 34.13431351 38.53911148 34.30249023 36.81942749 C35.02792004 29.21468901 35.49103875 21.6344187 36 14 C11.91 14 -12.18 14 -37 14 C-37 13.67 -37 13.34 -37 13 C-24.79 13 -12.58 13 0 13 C0 8.71 0 4.42 0 0 Z " fill="#33A5DE" transform="translate(237,93)"/>
<path d="M0 0 C3.74629204 0.15167174 7.47259388 0.40470145 11.2109375 0.68359375 C15.35764654 0.96049126 18.93400682 1.05529594 23 0 C25.3724444 0 27.6979919 0.17767414 30.0625 0.375 C30.96097656 0.44460937 31.85945313 0.51421875 32.78515625 0.5859375 C33.51605469 0.72257812 34.24695313 0.85921875 35 1 C35.495 1.99 35.495 1.99 36 3 C38.52733235 3.65555119 38.52733235 3.65555119 41 4 C41 5.98 41 7.96 41 10 C38.36 10.33 35.72 10.66 33 11 C33.97453125 11.87011719 33.97453125 11.87011719 34.96875 12.7578125 C35.8040625 13.53898437 36.639375 14.32015625 37.5 15.125 C38.3353125 15.89070313 39.170625 16.65640625 40.03125 17.4453125 C42 20 42 20 42 26 C34.74 26 27.48 26 20 26 C19.505 24.02 19.505 24.02 19 22 C18.34 24.31 17.68 26.62 17 29 C13.06251542 29.02898816 9.12505821 29.04679464 5.1875 29.0625 C4.06794922 29.07087891 2.94839844 29.07925781 1.79492188 29.08789062 C0.18520508 29.09272461 0.18520508 29.09272461 -1.45703125 29.09765625 C-2.9416687 29.10551147 -2.9416687 29.10551147 -4.45629883 29.11352539 C-7 29 -7 29 -10 28 C-13.42821445 27.77337092 -16.85011944 27.60621821 -20.28320312 27.48242188 C-25.78535986 27.21464014 -25.78535986 27.21464014 -28 25 C-28.22705078 22.66162109 -28.22705078 22.66162109 -28.1953125 19.7734375 C-28.18886719 18.7421875 -28.18242187 17.7109375 -28.17578125 16.6484375 C-28.15902344 15.56820312 -28.14226562 14.48796875 -28.125 13.375 C-28.11597656 12.28703125 -28.10695312 11.1990625 -28.09765625 10.078125 C-28.07403409 7.38519848 -28.04109556 4.69270745 -28 2 C-22.16384892 0.97667488 -16.54009779 0.91439801 -10.625 1 C-8.82557921 1.0253797 -7.02609075 1.04645666 -5.2265625 1.0625 C-4.43846191 1.07410156 -3.65036133 1.08570313 -2.83837891 1.09765625 C-0.98159009 1.20445742 -0.98159009 1.20445742 0 0 Z " fill="#3C96C4" transform="translate(229,47)"/>
<path d="M0 0 C0.8390387 -0.00249756 1.67807739 -0.00499512 2.5425415 -0.00756836 C4.90861285 -0.01338824 7.27455266 -0.01201603 9.640625 -0.0078125 C10.34929718 -0.00979645 11.05796936 -0.0117804 11.78811646 -0.01382446 C16.63464597 0.00964597 16.63464597 0.00964597 17.75 1.125 C17.87680356 3.35143462 17.92584894 5.58248777 17.9375 7.8125 C17.95167969 9.03324219 17.96585937 10.25398438 17.98046875 11.51171875 C17.75 15.125 17.75 15.125 16.75708008 17.97631836 C15.72862658 21.19182496 15.46867202 23.75447027 15.40625 27.1171875 C15.36177734 28.79361328 15.36177734 28.79361328 15.31640625 30.50390625 C15.28353516 32.23447266 15.28353516 32.23447266 15.25 34 C15.00505063 46.8094113 15.00505063 46.8094113 13.7578125 51.3203125 C12.52947241 55.95753439 12.30101983 60.35046203 12.125 65.125 C12.08632813 65.99511719 12.04765625 66.86523438 12.0078125 67.76171875 C11.91459113 69.88250486 11.83125864 72.00372185 11.75 74.125 C12.74 72.145 12.74 72.145 13.75 70.125 C14.41 70.125 15.07 70.125 15.75 70.125 C16.245 68.64 16.245 68.64 16.75 67.125 C17.41 67.125 18.07 67.125 18.75 67.125 C18.87867289 75.18850113 18.54681084 83.09997656 17.75 91.125 C14.917031 91.91798919 12.08364215 92.70942272 9.25 93.5 C8.45851563 93.72171875 7.66703125 93.9434375 6.8515625 94.171875 C3.02776217 95.23752427 -0.79704866 96.27270325 -4.65234375 97.21875 C-8.19687635 98.04461078 -8.19687635 98.04461078 -11.3125 99.25 C-14.25 100.125 -14.25 100.125 -21.25 100.125 C-21.25 95.175 -21.25 90.225 -21.25 85.125 C2.10135135 77.125 2.10135135 77.125 8.75 77.125 C8.82347656 75.66054443 8.82347656 75.66054443 8.8984375 74.16650391 C9.53034357 62.24440831 10.60000964 50.38184983 11.75 38.5 C12.01981465 35.70152529 12.28863144 32.90296794 12.55493164 30.10415649 C12.71867604 28.38404481 12.88431351 26.66411148 13.05249023 24.94442749 C13.77792004 17.33968901 14.24103875 9.7594187 14.75 2.125 C-9.34 2.125 -33.43 2.125 -58.25 2.125 C-58.25 1.795 -58.25 1.465 -58.25 1.125 C-38.83364015 0.48695147 -19.42773662 0.02055598 0 0 Z " fill="#34A5DD" transform="translate(258.25,104.875)"/>
<path d="M0 0 C4.95 0 9.9 0 15 0 C15 3.96 15 7.92 15 12 C16.423125 12.309375 17.84625 12.61875 19.3125 12.9375 C21.95517072 13.51199363 24.42906918 14.14302306 27 15 C32.47394593 15.3989486 36.95144515 15.29479766 42 13 C42.99 13.33 43.98 13.66 45 14 C44.34 14 43.68 14 43 14 C43 14.66 43 15.32 43 16 C39.32589215 17.17571451 35.83070817 17.07366746 32 17 C32.495 22.94 32.495 22.94 33 29 C33.88042969 28.7834375 34.76085937 28.566875 35.66796875 28.34375 C37.41013672 27.92609375 37.41013672 27.92609375 39.1875 27.5 C40.33605469 27.2215625 41.48460937 26.943125 42.66796875 26.65625 C45.56818829 26.08504615 48.06096385 25.86716221 51 26 C47.65336399 27.80391843 44.24014196 29.02037375 40.625 30.1875 C39.52414063 30.55230469 38.42328125 30.91710937 37.2890625 31.29296875 C30.29570728 32.79629095 23.09428025 29.79380837 16.3125 28 C14.74532227 27.59007812 14.74532227 27.59007812 13.14648438 27.171875 C5.44823328 25.14941109 5.44823328 25.14941109 2 24 C0.69613181 15.92067387 -0.24812636 8.18816997 0 0 Z " fill="#E3ECEF" transform="translate(205,158)"/>
<path d="M0 0 C1.32 0.33 2.64 0.66 4 1 C6.68149993 0.61432869 6.68149993 0.61432869 9 0 C8.01 0.495 8.01 0.495 7 1 C7.0721875 1.65484375 7.144375 2.3096875 7.21875 2.984375 C7.85535342 9.24430858 8.06688304 15.37281224 7.9375 21.6640625 C7.73091276 23.96022654 7.73091276 23.96022654 9 25 C11.50464571 25.21468392 13.990574 25.37669151 16.5 25.5 C25.29316323 25.97778439 25.29316323 25.97778439 29.625 26.5625 C34.69349076 27.19973772 39.76444882 27.02724843 44.86328125 26.9375 C48 27 48 27 52 28 C52.33 25.03 52.66 22.06 53 19 C53.66 19.33 54.32 19.66 55 20 C55.495 22.475 55.495 22.475 56 25 C63.425 25.99 63.425 25.99 71 27 C71.495 29.475 71.495 29.475 72 32 C72.99 32 73.98 32 75 32 C75 30.68 75 29.36 75 28 C75.99 28 76.98 28 78 28 C78.495 29.485 78.495 29.485 79 31 C78.34 32.32 77.68 33.64 77 35 C56.21 35 35.42 35 14 35 C14 34.01 14 33.02 14 32 C13.34 32 12.68 32 12 32 C12 31.34 12 30.68 12 30 C10.35 30.66 8.7 31.32 7 32 C5.21010608 30.21010608 5.57872944 27.55229071 5.375 25.125 C5.27960938 24.05507812 5.18421875 22.98515625 5.0859375 21.8828125 C5 19 5 19 6 16 C5.34 16 4.68 16 4 16 C3.34 14.68 2.68 13.36 2 12 C1.01 12.495 1.01 12.495 0 13 C0 8.71 0 4.42 0 0 Z " fill="#2FA0D8" transform="translate(194,48)"/>
<path d="M0 0 C18.81 0.495 18.81 0.495 38 1 C37.67 4.96 37.34 8.92 37 13 C32.35524041 13.04944066 27.71063404 13.08573863 23.06567383 13.10986328 C21.48556856 13.11992041 19.9054819 13.13356785 18.32543945 13.15087891 C16.0541525 13.17514022 13.78311164 13.18648582 11.51171875 13.1953125 C10.80536789 13.20563507 10.09901703 13.21595764 9.3712616 13.22659302 C5.67802208 13.22743775 4.16080784 13.10720523 1 11 C0.67 7.37 0.34 3.74 0 0 Z " fill="#E9EDEC" transform="translate(200,107)"/>
<path d="M0 0 C5.94 0 11.88 0 18 0 C17.67 6.27 17.34 12.54 17 19 C14.69 19.66 12.38 20.32 10 21 C9.13375 21.37125 8.2675 21.7425 7.375 22.125 C5 23 5 23 0 23 C0 15.41 0 7.82 0 0 Z " fill="#2FA7E3" transform="translate(237,151)"/>
<path d="M0 0 C6.93 0 13.86 0 21 0 C21 1.98 21 3.96 21 6 C18.03 6 15.06 6 12 6 C12 6.66 12 7.32 12 8 C12.99 8.33 13.98 8.66 15 9 C16.60546875 10.41796875 16.60546875 10.41796875 18.1875 12.1875 C18.71730469 12.75855469 19.24710938 13.32960938 19.79296875 13.91796875 C21 16 21 16 21 22 C14.07 22 7.14 22 0 22 C0 20.02 0 18.04 0 16 C2.97 16 5.94 16 9 16 C8.566875 15.51789063 8.13375 15.03578125 7.6875 14.5390625 C7.130625 13.90742187 6.57375 13.27578125 6 12.625 C5.1646875 11.68527344 5.1646875 11.68527344 4.3125 10.7265625 C3 9 3 9 3 7 C2.01 6.67 1.02 6.34 0 6 C0 4.02 0 2.04 0 0 Z " fill="#0B162B" transform="translate(225,51)"/>
<path d="M0 0 C6.6 0 13.2 0 20 0 C20 1.98 20 3.96 20 6 C17.36 6.33 14.72 6.66 12 7 C12.6496875 7.58007812 13.299375 8.16015625 13.96875 8.7578125 C14.8040625 9.53898437 15.639375 10.32015625 16.5 11.125 C17.3353125 11.89070313 18.170625 12.65640625 19.03125 13.4453125 C21 16 21 16 21 22 C14.07 22 7.14 22 0 22 C0 20.02 0 18.04 0 16 C2.97 16 5.94 16 9 16 C7.8758824 14.70756532 6.75067408 13.41607925 5.625 12.125 C4.99851563 11.40570313 4.37203125 10.68640625 3.7265625 9.9453125 C2.52573166 8.5923402 1.2791655 7.2791655 0 6 C0 4.02 0 2.04 0 0 Z " fill="#071925" transform="translate(250,51)"/>
<path d="M0 0 C18.81 0.33 37.62 0.66 57 1 C56.67 5.95 56.34 10.9 56 16 C49.4 16 42.8 16 36 16 C36 11.38 36 6.76 36 2 C24.12 2 12.24 2 0 2 C0 1.34 0 0.68 0 0 Z " fill="#32A6DE" transform="translate(201,120)"/>
<path d="M0 0 C5.94 0 11.88 0 18 0 C18 1.98 18 3.96 18 6 C14.7 6 11.4 6 8 6 C8 8.97 8 11.94 8 15 C11.3 15 14.6 15 18 15 C18 17.31 18 19.62 18 22 C12.06 22 6.12 22 0 22 C0 14.74 0 7.48 0 0 Z " fill="#0F1116" transform="translate(203,51)"/>
<path d="M0 0 C2.97 0 5.94 0 9 0 C9 0.66 9 1.32 9 2 C9.66 1.67 10.32 1.34 11 1 C11.33 4.3 11.66 7.6 12 11 C11.01 11.33 10.02 11.66 9 12 C9.33 12.99 9.66 13.98 10 15 C12.31 14.34 14.62 13.68 17 13 C17 14.65 17 16.3 17 18 C14.69 18.99 12.38 19.98 10 21 C13.16240582 23.10827055 14.50657469 23.33817465 18.1875 23.625 C19.08855469 23.69976562 19.98960937 23.77453125 20.91796875 23.8515625 C21.60503906 23.90054688 22.29210937 23.94953125 23 24 C23 24.33 23 24.66 23 25 C14.5579911 26.74662253 8.01139652 24.65527082 0 22 C-0.94450945 14.48751716 -0.94450945 7.51248284 0 0 Z " fill="#E5EAEE" transform="translate(207,160)"/>
<path d="M0 0 C0.8390387 -0.00249756 1.67807739 -0.00499512 2.5425415 -0.00756836 C4.90861285 -0.01338824 7.27455266 -0.01201603 9.640625 -0.0078125 C10.34929718 -0.00979645 11.05796936 -0.0117804 11.78811646 -0.01382446 C16.63464597 0.00964597 16.63464597 0.00964597 17.75 1.125 C17.87680356 3.35143462 17.92584894 5.58248777 17.9375 7.8125 C17.95167969 9.03324219 17.96585937 10.25398438 17.98046875 11.51171875 C17.75 15.125 17.75 15.125 16.75708008 17.97631836 C15.72862658 21.19182496 15.46867202 23.75447027 15.40625 27.1171875 C15.36177734 28.79361328 15.36177734 28.79361328 15.31640625 30.50390625 C15.28353516 32.23447266 15.28353516 32.23447266 15.25 34 C15.00504127 46.80990083 15.00504127 46.80990083 13.74609375 51.33203125 C12.33473545 56.70626228 12.36008321 61.96694831 12.27148438 67.49804688 C12.24505859 68.30951172 12.21863281 69.12097656 12.19140625 69.95703125 C12.17795166 70.68639893 12.16449707 71.4157666 12.15063477 72.16723633 C11.64811635 74.62287021 10.63693897 75.53654218 8.75 77.125 C9.39789787 64.21179874 10.50456518 51.36799442 11.75 38.5 C12.01981465 35.70152529 12.28863144 32.90296794 12.55493164 30.10415649 C12.71867604 28.38404481 12.88431351 26.66411148 13.05249023 24.94442749 C13.77792004 17.33968901 14.24103875 9.7594187 14.75 2.125 C-9.34 2.125 -33.43 2.125 -58.25 2.125 C-58.25 1.795 -58.25 1.465 -58.25 1.125 C-38.83364015 0.48695147 -19.42773662 0.02055598 0 0 Z " fill="#58A3C5" transform="translate(258.25,104.875)"/>
<path d="M0 0 C0.33 0 0.66 0 1 0 C2.39388132 5.22705497 2 9.17847012 2 15 C13.88 15 25.76 15 38 15 C38 19.62 38 24.24 38 29 C32.39 29 26.78 29 21 29 C21.33 28.34 21.66 27.68 22 27 C26.62 27 31.24 27 36 27 C36 25.68 36 24.36 36 23 C30.72 23 25.44 23 20 23 C19.67 22.01 19.34 21.02 19 20 C24.28 19.34 29.56 18.68 35 18 C22.13 17.505 22.13 17.505 9 17 C9 18.32 9 19.64 9 21 C8.01 20.67 7.02 20.34 6 20 C6 19.01 6 18.02 6 17 C5.195625 16.87625 4.39125 16.7525 3.5625 16.625 C2.2940625 16.315625 2.2940625 16.315625 1 16 C-0.50156874 12.99686252 -0.09281204 10.20932478 -0.0625 6.875 C-0.05347656 5.59367187 -0.04445312 4.31234375 -0.03515625 2.9921875 C-0.02355469 2.00476563 -0.01195312 1.01734375 0 0 Z " fill="#196EAB" transform="translate(199,107)"/>
<path d="M0 0 C0.33 0 0.66 0 1 0 C0.125 7.875 0.125 7.875 -1 9 C-1.33 11.97 -1.66 14.94 -2 18 C-13.88 18 -25.76 18 -38 18 C-37.67 21.63 -37.34 25.26 -37 29 C-35.94683594 28.98839844 -34.89367187 28.97679687 -33.80859375 28.96484375 C-24.1527468 28.89279359 -14.62570532 29.21537191 -5 30 C-5 30.33 -5 30.66 -5 31 C-16.55 31 -28.1 31 -40 31 C-40.33 26.05 -40.66 21.1 -41 16 C-28.46 16 -15.92 16 -3 16 C-3 12.04 -3 8.08 -3 4 C-1 1 -1 1 0 0 Z " fill="#C2E5F3" transform="translate(260,120)"/>
<path d="M0 0 C0.66 1.32 1.32 2.64 2 4 C2.33 3.01 2.66 2.02 3 1 C4.93443317 3.84475466 4.99127818 5.10117309 4.6875 8.625 C4 12 4 12 3 14 C-0.63 14 -4.26 14 -8 14 C-8 12.02 -8 10.04 -8 8 C-12.31161388 8.47035788 -16.46550905 9.06367328 -20.6875 10.0625 C-23.8642934 10.80448462 -26.71809797 11.21173561 -30 11 C-27.16253617 9.10835745 -25.26924501 8.37698258 -22.03515625 7.4921875 C-20.58786133 7.09580078 -20.58786133 7.09580078 -19.11132812 6.69140625 C-17.6021582 6.28728516 -17.6021582 6.28728516 -16.0625 5.875 C-15.06025391 5.59785156 -14.05800781 5.32070312 -13.02539062 5.03515625 C-8.82863023 3.89847532 -5.37912679 3 -1 3 C-0.67 2.01 -0.34 1.02 0 0 Z " fill="#36A5DA" transform="translate(269,179)"/>
<path d="M0 0 C5.94 0 11.88 0 18 0 C17.67 6.27 17.34 12.54 17 19 C14.69 19.66 12.38 20.32 10 21 C9.13375 21.37125 8.2675 21.7425 7.375 22.125 C4.76634271 23.08608427 2.75762929 23.15757882 0 23 C0 20.36 0 17.72 0 15 C0.99 15 1.98 15 3 15 C3 14.01 3 13.02 3 12 C3.66 12 4.32 12 5 12 C5.20086443 15.71599191 5.1519437 16.77208445 3 20 C4.98 19.34 6.96 18.68 9 18 C9 14.7 9 11.4 9 8 C7.68 8 6.36 8 5 8 C5 7.01 5 6.02 5 5 C6.65 5 8.3 5 10 5 C10 6.32 10 7.64 10 9 C10.99 9 11.98 9 13 9 C13 11.64 13 14.28 13 17 C13.99 17 14.98 17 16 17 C16 12.05 16 7.1 16 2 C10.72 2 5.44 2 0 2 C0 1.34 0 0.68 0 0 Z " fill="#38A0DE" transform="translate(237,151)"/>
<path d="M0 0 C4.95 0 9.9 0 15 0 C15.09765625 7.71484375 15.09765625 7.71484375 15 10 C14 11 14 11 11.05859375 11.09765625 C9.26615234 11.08025391 9.26615234 11.08025391 7.4375 11.0625 C5.64119141 11.04896484 5.64119141 11.04896484 3.80859375 11.03515625 C2.88175781 11.02355469 1.95492187 11.01195312 1 11 C-0.71466036 7.57067929 -0.05404056 3.78283935 0 0 Z " fill="#ECEBE8" transform="translate(222,138)"/>
<path d="M0 0 C1.58206057 0.00667536 3.16410534 0.0186375 4.74609375 0.03515625 C5.55240234 0.03966797 6.35871094 0.04417969 7.18945312 0.04882812 C9.18753131 0.06065107 11.18557158 0.07858711 13.18359375 0.09765625 C14.73124925 3.19296724 14.62768826 6.46433255 14.90234375 9.8828125 C14.95016785 12.06836293 14.95016785 12.06836293 16.18359375 13.09765625 C18.03251321 13.33129506 19.88847406 13.5106926 21.74609375 13.66015625 C22.75800781 13.74394531 23.76992187 13.82773438 24.8125 13.9140625 C25.59496094 13.97464844 26.37742188 14.03523437 27.18359375 14.09765625 C27.18359375 12.77765625 27.18359375 11.45765625 27.18359375 10.09765625 C27.84359375 10.09765625 28.50359375 10.09765625 29.18359375 10.09765625 C29.18359375 12.73765625 29.18359375 15.37765625 29.18359375 18.09765625 C23.09032426 17.54372266 17.9448269 16.16809941 12.18359375 14.09765625 C12.18359375 10.13765625 12.18359375 6.17765625 12.18359375 2.09765625 C7.23359375 2.09765625 2.28359375 2.09765625 -2.81640625 2.09765625 C-2.65140625 3.50015625 -2.48640625 4.90265625 -2.31640625 6.34765625 C-0.72970644 22.46760653 -0.72970644 22.46760653 -3.81640625 27.09765625 C-4.82306607 18.45116742 -5.20256612 9.7976109 -4.81640625 1.09765625 C-3.81640625 0.09765625 -3.81640625 0.09765625 0 0 Z " fill="#2470A2" transform="translate(207.81640625,155.90234375)"/>
<path d="M0 0 C4.95 0 9.9 0 15 0 C15 3.96 15 7.92 15 12 C16.423125 12.309375 17.84625 12.61875 19.3125 12.9375 C21.95517072 13.51199363 24.42906918 14.14302306 27 15 C32.47394593 15.3989486 36.95144515 15.29479766 42 13 C42.99 13.33 43.98 13.66 45 14 C44.34 14 43.68 14 43 14 C43 14.66 43 15.32 43 16 C34.77653317 17.43377448 27.27506525 18.41095583 19 17 C19 16.34 19 15.68 19 15 C18.38125 15.350625 17.7625 15.70125 17.125 16.0625 C16.42375 16.371875 15.7225 16.68125 15 17 C14.34 16.67 13.68 16.34 13 16 C12.67 16.66 12.34 17.32 12 18 C11.375 16.125 11.375 16.125 11 14 C11.66 13.34 12.32 12.68 13 12 C13.02375926 10.0068433 13.02375926 10.0068433 12.625 7.875 C12.41875 6.59625 12.2125 5.3175 12 4 C11.01 4 10.02 4 9 4 C9.33 3.67 9.66 3.34 10 3 C7.36 2.67 4.72 2.34 2 2 C2 5.63 2 9.26 2 13 C-0.92332269 8.61501596 -0.1356502 5.2225328 0 0 Z " fill="#D0E8F4" transform="translate(205,158)"/>
<path d="M0 0 C0.79212891 -0.00128906 1.58425781 -0.00257812 2.40039062 -0.00390625 C3.64272461 0.00189453 3.64272461 0.00189453 4.91015625 0.0078125 C5.73451172 0.00394531 6.55886719 0.00007813 7.40820312 -0.00390625 C8.20162109 -0.00261719 8.99503906 -0.00132813 9.8125 0 C10.90099243 0.00169189 10.90099243 0.00169189 12.01147461 0.00341797 C13.97265625 0.1328125 13.97265625 0.1328125 16.97265625 1.1328125 C18.67132813 1.28059186 20.37443114 1.38028316 22.078125 1.44921875 C23.55249023 1.51206055 23.55249023 1.51206055 25.05664062 1.57617188 C26.59288086 1.63514648 26.59288086 1.63514648 28.16015625 1.6953125 C29.71379883 1.76008789 29.71379883 1.76008789 31.29882812 1.82617188 C33.85663815 1.93225616 36.4145447 2.03431396 38.97265625 2.1328125 C38.97265625 2.4628125 38.97265625 2.7928125 38.97265625 3.1328125 C32.04265625 3.1328125 25.11265625 3.1328125 17.97265625 3.1328125 C18.33329424 8.88094262 18.33329424 8.88094262 20.97265625 11.1328125 C19.98265625 11.4628125 18.99265625 11.7928125 17.97265625 12.1328125 C17.64265625 11.4728125 17.31265625 10.8128125 16.97265625 10.1328125 C15.98265625 9.8028125 14.99265625 9.4728125 13.97265625 9.1328125 C13.97265625 7.1528125 13.97265625 5.1728125 13.97265625 3.1328125 C8.03265625 3.1328125 2.09265625 3.1328125 -4.02734375 3.1328125 C-4.02734375 10.3928125 -4.02734375 17.6528125 -4.02734375 25.1328125 C-4.68734375 24.8028125 -5.34734375 24.4728125 -6.02734375 24.1328125 C-6.02734375 16.5428125 -6.02734375 8.9528125 -6.02734375 1.1328125 C-3.7647851 0.00153317 -2.50946466 0.00390665 0 0 Z " fill="#3B89B1" transform="translate(207.02734375,47.8671875)"/>
<path d="M0 0 C18.81 0.33 37.62 0.66 57 1 C56.67 5.95 56.34 10.9 56 16 C49.4 16 42.8 16 36 16 C36 15.34 36 14.68 36 14 C41.94 14 47.88 14 54 14 C54 10.37 54 6.74 54 3 C52.92250488 3.00580078 51.84500977 3.01160156 50.73486328 3.01757812 C39.4389149 3.05902705 28.16512685 2.84422527 16.875 2.5 C15.22266325 2.45158345 13.57031949 2.40340551 11.91796875 2.35546875 C7.94522685 2.23971091 3.97259194 2.12079044 0 2 C0 1.34 0 0.68 0 0 Z " fill="#5FA2C6" transform="translate(201,120)"/>
<path d="M0 0 C5.94 0 11.88 0 18 0 C18 1.98 18 3.96 18 6 C14.7 6 11.4 6 8 6 C8 8.97 8 11.94 8 15 C11.3 15 14.6 15 18 15 C18 17.31 18 19.62 18 22 C12.06 22 6.12 22 0 22 C0 14.74 0 7.48 0 0 Z M2 2 C2 7.61 2 13.22 2 19 C3.32 19 4.64 19 6 19 C6.78375 19.33 7.5675 19.66 8.375 20 C11.3997231 21.15227547 13.79007078 21.14929903 17 21 C17 19.35 17 17.7 17 16 C13.7 16 10.4 16 7 16 C7.33 12.7 7.66 9.4 8 6 C12.455 5.505 12.455 5.505 17 5 C17 3.68 17 2.36 17 1 C11.70518291 0.90710847 7.35789122 1.23458697 2 2 Z " fill="#07283D" transform="translate(203,51)"/>
<path d="M0 0 C11.55 0 23.1 0 35 0 C34.67 1.32 34.34 2.64 34 4 C22.78 4 11.56 4 0 4 C0 2.68 0 1.36 0 0 Z " fill="#38A4D5" transform="translate(237,98)"/>
<path d="M0 0 C2.5 1.625 2.5 1.625 5 4 C5 5.98 5 7.96 5 10 C-1.93 10 -8.86 10 -16 10 C-16 8.02 -16 6.04 -16 4 C-13.03 4 -10.06 4 -7 4 C-6.67 3.34 -6.34 2.68 -6 2 C-1.125 4.75 -1.125 4.75 0 7 C0.99 7.33 1.98 7.66 3 8 C2.505 7.05125 2.01 6.1025 1.5 5.125 C0 2 0 2 0 0 Z " fill="#0A1312" transform="translate(241,63)"/>
<path d="M0 0 C3.3 0 6.6 0 10 0 C10.33 1.32 10.66 2.64 11 4 C10.01 4.495 10.01 4.495 9 5 C9.4640625 5.7734375 9.4640625 5.7734375 9.9375 6.5625 C11.77390839 10.77543691 12.46033351 14.61899946 11 19 C10.01 19 9.02 19 8 19 C8 20.32 8 21.64 8 23 C7.01 23 6.02 23 5 23 C4.67 21.68 4.34 20.36 4 19 C-3.425 18.01 -3.425 18.01 -11 17 C-11 16.67 -11 16.34 -11 16 C-4.07 16 2.86 16 10 16 C8.18322697 9.13747311 8.18322697 9.13747311 3.875 4.625 C2.57443044 3.42625439 1.28010989 2.2205699 0 1 C0 0.67 0 0.34 0 0 Z " fill="#3F96C1" transform="translate(261,57)"/>
<path d="M0 0 C2.31 0 4.62 0 7 0 C7 0.66 7 1.32 7 2 C8.65 2 10.3 2 12 2 C12 2.66 12 3.32 12 4 C13.32 3.67 14.64 3.34 16 3 C16.33 3.99 16.66 4.98 17 6 C14.36 6.33 11.72 6.66 9 7 C9 6.34 9 5.68 9 5 C8.01 5 7.02 5 6 5 C6.33 5.99 6.66 6.98 7 8 C4.69 8 2.38 8 0 8 C0 5.36 0 2.72 0 0 Z " fill="#3B9FD4" transform="translate(212,58)"/>
<path d="M0 0 C4.60843821 6.91265731 4.27474132 16.895131 4 25 C3.34 25 2.68 25 2 25 C1.67 25.99 1.34 26.98 1 28 C0.34 28 -0.32 28 -1 28 C-1 24.04 -1 20.08 -1 16 C-0.34 16 0.32 16 1 16 C0.67 15.01 0.34 14.02 0 13 C-0.06937062 10.77181559 -0.08457084 8.54165476 -0.0625 6.3125 C-0.05347656 5.13300781 -0.04445312 3.95351562 -0.03515625 2.73828125 C-0.02355469 1.83464844 -0.01195312 0.93101562 0 0 Z " fill="#309DD6" transform="translate(185,179)"/>
<path d="M0 0 C1.1725131 0.95117134 2.33787015 1.91117009 3.5 2.875 C4.1496875 3.40867188 4.799375 3.94234375 5.46875 4.4921875 C6.22671875 5.23855469 6.22671875 5.23855469 7 6 C7 6.66 7 7.32 7 8 C4.03 8 1.06 8 -2 8 C-2 9.98 -2 11.96 -2 14 C-2.33 14 -2.66 14 -3 14 C-3.33 12.68 -3.66 11.36 -4 10 C-4.66 11.32 -5.32 12.64 -6 14 C-6.433125 12.3603125 -6.433125 12.3603125 -6.875 10.6875 C-7.81893204 6.95986155 -7.81893204 6.95986155 -10 4 C-9.13375 3.814375 -9.13375 3.814375 -8.25 3.625 C-5.97664233 2.99351176 -4.0746471 2.11141809 -2 1 C-2 2.65 -2 4.3 -2 6 C-1.01 6 -0.02 6 1 6 C0.67 4.02 0.34 2.04 0 0 Z " fill="#368EB3" transform="translate(252,59)"/>
<path d="M0 0 C0.33 0 0.66 0 1 0 C2.39388132 5.22705497 2 9.17847012 2 15 C13.88 15 25.76 15 38 15 C38 15.33 38 15.66 38 16 C28.43 16 18.86 16 9 16 C9 17.65 9 19.3 9 21 C8.01 20.67 7.02 20.34 6 20 C6 19.01 6 18.02 6 17 C5.195625 16.87625 4.39125 16.7525 3.5625 16.625 C2.2940625 16.315625 2.2940625 16.315625 1 16 C-0.50156874 12.99686252 -0.09281204 10.20932478 -0.0625 6.875 C-0.05347656 5.59367187 -0.04445312 4.31234375 -0.03515625 2.9921875 C-0.02355469 2.00476563 -0.01195312 1.01734375 0 0 Z " fill="#206A9C" transform="translate(199,107)"/>
<path d="M0 0 C0.66 0 1.32 0 2 0 C2.33 1.32 2.66 2.64 3 4 C3.99 4 4.98 4 6 4 C8.1875 5.875 8.1875 5.875 10 8 C10 8.66 10 9.32 10 10 C10.66 10 11.32 10 12 10 C15 15.75 15 15.75 15 18 C11.69730521 17.43056986 10.12808023 16.59070637 8 14 C7.525625 13.154375 7.05125 12.30875 6.5625 11.4375 C5.23950391 8.86127804 5.23950391 8.86127804 2.875 8.125 C2.25625 7.75375 1.6375 7.3825 1 7 C0.25 3.375 0.25 3.375 0 0 Z " fill="#1A0F11" transform="translate(229,53)"/>
<path d="M0 0 C5.94 0 11.88 0 18 0 C17.85983833 3.14618209 17.71315095 6.29181816 17.5625 9.4375 C17.52318359 10.33533203 17.48386719 11.23316406 17.44335938 12.15820312 C17.40146484 13.01220703 17.35957031 13.86621094 17.31640625 14.74609375 C17.27974854 15.53685303 17.24309082 16.3276123 17.20532227 17.14233398 C17 19 17 19 16 20 C14.00041636 20.04080783 11.99954746 20.04254356 10 20 C10.33 19.34 10.66 18.68 11 18 C12.65 17.67 14.3 17.34 16 17 C16 12.05 16 7.1 16 2 C10.72 2 5.44 2 0 2 C0 1.34 0 0.68 0 0 Z " fill="#57A1BB" transform="translate(237,151)"/>
<path d="M0 0 C0.33 0 0.66 0 1 0 C1.66 2.64 2.32 5.28 3 8 C4.05316406 7.98839844 5.10632813 7.97679687 6.19140625 7.96484375 C15.8472532 7.89279359 25.37429468 8.21537191 35 9 C35 9.33 35 9.66 35 10 C23.45 10 11.9 10 0 10 C0 6.7 0 3.4 0 0 Z " fill="#D2F0FC" transform="translate(220,141)"/>
<path d="M0 0 C6.93 0 13.86 0 21 0 C21 1.98 21 3.96 21 6 C18.03 6 15.06 6 12 6 C12 6.66 12 7.32 12 8 C12.99 8.33 13.98 8.66 15 9 C15.33 9.99 15.66 10.98 16 12 C15.34 12 14.68 12 14 12 C14 11.34 14 10.68 14 10 C12.68 9.34 11.36 8.68 10 8 C10 7.34 10 6.68 10 6 C9.34 5.67 8.68 5.34 8 5 C9.88059033 3.11940967 12.49890038 3.87638782 14.9921875 3.8671875 C17 4 17 4 20 5 C20 3.68 20 2.36 20 1 C13.73 1 7.46 1 1 1 C1.66 2.65 2.32 4.3 3 6 C2.01 6 1.02 6 0 6 C0 4.02 0 2.04 0 0 Z " fill="#062839" transform="translate(225,51)"/>
<path d="M0 0 C5.89112044 0.71724996 11.55764167 2.00192443 17.3125 3.4375 C18.21806641 3.65470703 19.12363281 3.87191406 20.05664062 4.09570312 C20.92095703 4.31033203 21.78527344 4.52496094 22.67578125 4.74609375 C23.8500769 5.03504517 23.8500769 5.03504517 25.0480957 5.32983398 C27 6 27 6 29 8 C26.47946405 9.26026798 25.1457902 8.91874445 22.375 8.5625 C21.55773437 8.46066406 20.74046875 8.35882813 19.8984375 8.25390625 C19.27195313 8.17011719 18.64546875 8.08632812 18 8 C18 7.34 18 6.68 18 6 C15.36 6 12.72 6 10 6 C9.67 5.34 9.34 4.68 9 4 C6.88153715 3.31270746 6.88153715 3.31270746 4.4375 2.875 C3.61121094 2.70742187 2.78492188 2.53984375 1.93359375 2.3671875 C1.29550781 2.24601563 0.65742188 2.12484375 0 2 C0 1.34 0 0.68 0 0 Z " fill="#2772A4" transform="translate(206,182)"/>
<path d="M0 0 C0.33 0 0.66 0 1 0 C1 1.98 1 3.96 1 6 C-1.64 6.33 -4.28 6.66 -7 7 C-4.69 9.31 -2.38 11.62 0 14 C-1.32 14.33 -2.64 14.66 -4 15 C-4 14.34 -4 13.68 -4 13 C-5.98 13 -7.96 13 -10 13 C-10 12.01 -10 11.02 -10 10 C-10.66 10 -11.32 10 -12 10 C-12 7 -12 7 -10 5 C-7.6171875 4.8046875 -7.6171875 4.8046875 -4.875 4.875 C-3.50988281 4.90207031 -3.50988281 4.90207031 -2.1171875 4.9296875 C-1.41851562 4.95289063 -0.71984375 4.97609375 0 5 C0 3.35 0 1.7 0 0 Z " fill="#0C212B" transform="translate(269,51)"/>
<path d="M0 0 C0 1.65 0 3.3 0 5 C-5.36439644 7.68219822 -9.01006953 8.3152595 -15 8 C-15.33 7.01 -15.66 6.02 -16 5 C-15.04287109 4.81824219 -15.04287109 4.81824219 -14.06640625 4.6328125 C-13.24011719 4.46523437 -12.41382813 4.29765625 -11.5625 4.125 C-10.73878906 3.96257812 -9.91507813 3.80015625 -9.06640625 3.6328125 C-8.38449219 3.42398438 -7.70257813 3.21515625 -7 3 C-6.67 2.34 -6.34 1.68 -6 1 C-3.911361 0.32624548 -2.19636905 0 0 0 Z " fill="#EDEAE5" transform="translate(224,173)"/>
<path d="M0 0 C2.5 1.625 2.5 1.625 5 4 C5 5.98 5 7.96 5 10 C-1.93 10 -8.86 10 -16 10 C-16 8.02 -16 6.04 -16 4 C-13.03 4 -10.06 4 -7 4 C-6.67 3.34 -6.34 2.68 -6 2 C-6 2.99 -6 3.98 -6 5 C-8.97 5 -11.94 5 -15 5 C-15 6.32 -15 7.64 -15 9 C-9.06 8.67 -3.12 8.34 3 8 C2.01 6.02 1.02 4.04 0 2 C0 1.34 0 0.68 0 0 Z " fill="#052739" transform="translate(241,63)"/>
<path d="M0 0 C0.33 0 0.66 0 1 0 C1 2.31 1 4.62 1 7 C6.61 7 12.22 7 18 7 C18 7.66 18 8.32 18 9 C10.41 9 2.82 9 -5 9 C-4.67 8.01 -4.34 7.02 -4 6 C-2.68 6 -1.36 6 0 6 C0 4.02 0 2.04 0 0 Z " fill="#2A709D" transform="translate(219,144)"/>
<path d="M0 0 C1.65 0 3.3 0 5 0 C5 4.29 5 8.58 5 13 C4.01 13.33 3.02 13.66 2 14 C2.33 11.36 2.66 8.72 3 6 C2.01 6 1.02 6 0 6 C0 4.02 0 2.04 0 0 Z " fill="#29A9E5" transform="translate(247,154)"/>
<path d="M0 0 C5.28 0 10.56 0 16 0 C16 4.95 16 9.9 16 15 C15.01 15.33 14.02 15.66 13 16 C13 15.34 13 14.68 13 14 C13.66 14 14.32 14 15 14 C15 9.71 15 5.42 15 1 C13.35 1 11.7 1 10 1 C10 1.66 10 2.32 10 3 C6.7 2.67 3.4 2.34 0 2 C0 1.34 0 0.68 0 0 Z " fill="#35A7CF" transform="translate(237,153)"/>
<path d="M0 0 C0 3.3 0 6.6 0 10 C-1.98 10.66 -3.96 11.32 -6 12 C-5.71905418 10.1858073 -5.42493567 8.37364999 -5.125 6.5625 C-4.96257812 5.55316406 -4.80015625 4.54382813 -4.6328125 3.50390625 C-4.42398438 2.67761719 -4.21515625 1.85132813 -4 1 C-2 0 -2 0 0 0 Z " fill="#2BACD9" transform="translate(246,159)"/>
<path d="M0 0 C0.66 0 1.32 0 2 0 C2.20086443 3.71599191 2.1519437 4.77208445 0 8 C1.32 8 2.64 8 4 8 C4 8.66 4 9.32 4 10 C1.69 10.33 -0.62 10.66 -3 11 C-3 8.36 -3 5.72 -3 3 C-2.01 3 -1.02 3 0 3 C0 2.01 0 1.02 0 0 Z " fill="#429FD7" transform="translate(240,163)"/>
<path d="M0 0 C1.19882813 0.07250977 1.19882813 0.07250977 2.421875 0.14648438 C3.246875 0.20255859 4.071875 0.25863281 4.921875 0.31640625 C5.76234375 0.36861328 6.6028125 0.42082031 7.46875 0.47460938 C9.5368102 0.60386314 11.6043972 0.74064899 13.671875 0.87890625 C13.671875 1.53890625 13.671875 2.19890625 13.671875 2.87890625 C6.081875 2.87890625 -1.508125 2.87890625 -9.328125 2.87890625 C-8.328125 0.87890625 -8.328125 0.87890625 -6.53613281 0.24633789 C-4.26032852 -0.13237567 -2.29972052 -0.14783918 0 0 Z " fill="#3A9ED5" transform="translate(233.328125,47.12109375)"/>
<path d="M0 0 C3.3 0 6.6 0 10 0 C10 1.32 10 2.64 10 4 C6.7 4 3.4 4 0 4 C0 2.68 0 1.36 0 0 Z " fill="#0B75C1" transform="translate(208,146)"/>
<path d="M0 0 C0.99 0 1.98 0 3 0 C4.1100616 4.66225873 3.9453329 7.5974045 2 12 C1.01 12.495 1.01 12.495 0 13 C0 8.71 0 4.42 0 0 Z " fill="#3598D3" transform="translate(194,48)"/>
<path d="M0 0 C3.3 0 6.6 0 10 0 C10 0.66 10 1.32 10 2 C11.65 1.67 13.3 1.34 15 1 C15 1.66 15 2.32 15 3 C14.33613281 2.98839844 13.67226563 2.97679688 12.98828125 2.96484375 C6.43693213 2.88106591 6.43693213 2.88106591 0 4 C0 2.68 0 1.36 0 0 Z " fill="#141018" transform="translate(251,68)"/>
<path d="M0 0 C-1.5625 2.0625 -1.5625 2.0625 -4 4 C-7.75 3.75 -7.75 3.75 -11 3 C-11.33 3.99 -11.66 4.98 -12 6 C-12.66 4.68 -13.32 3.36 -14 2 C-12.42085985 1.46658816 -10.83645613 0.94874237 -9.25 0.4375 C-8.36828125 0.14746094 -7.4865625 -0.14257812 -6.578125 -0.44140625 C-3.92165684 -1.01697435 -2.52968894 -0.89248371 0 0 Z " fill="#2F9BD5" transform="translate(272,208)"/>
<path d="M0 0 C0.33 0 0.66 0 1 0 C1.0871747 3.74985325 1.14045003 7.49944555 1.1875 11.25 C1.22520508 12.84521484 1.22520508 12.84521484 1.26367188 14.47265625 C1.27333984 15.49746094 1.28300781 16.52226562 1.29296875 17.578125 C1.3086792 18.52075195 1.32438965 19.46337891 1.34057617 20.43457031 C0.94383071 23.42310174 -0.01704271 24.77689217 -2 27 C-1.85785272 23.99978513 -1.71138304 20.99988211 -1.5625 18 C-1.52318359 17.16082031 -1.48386719 16.32164062 -1.44335938 15.45703125 C-1.18148668 10.25986542 -0.7100648 5.15542847 0 0 Z " fill="#1A82C0" transform="translate(282,120)"/>
<path d="M0 0 C2.31 0.33 4.62 0.66 7 1 C7 1.66 7 2.32 7 3 C6.34 3 5.68 3 5 3 C4.67 4.32 4.34 5.64 4 7 C2.35 7 0.7 7 -1 7 C-0.67 4.69 -0.34 2.38 0 0 Z " fill="#31A3CC" transform="translate(249,73)"/>
<path d="M0 0 C-1.53330213 2.50170347 -2.44885952 3.80097705 -5.25 4.8125 C-8.62215878 5.04241992 -11.67963926 4.58594601 -15 4 C-15 3.67 -15 3.34 -15 3 C-13.88625 2.690625 -12.7725 2.38125 -11.625 2.0625 C-4.27142857 -0.09285714 -4.27142857 -0.09285714 0 0 Z " fill="#E4EEF1" transform="translate(226,178)"/>
<path d="M0 0 C0.33 0 0.66 0 1 0 C1 2.64 1 5.28 1 8 C0.34 8 -0.32 8 -1 8 C-1 10.64 -1 13.28 -1 16 C-1.33 16 -1.66 16 -2 16 C-3.44799047 6.03852337 -3.44799047 6.03852337 -1.625 1.8125 C-1.08875 1.214375 -0.5525 0.61625 0 0 Z " fill="#FCFAEE" transform="translate(268,136)"/>
<path d="M0 0 C2.64 0 5.28 0 8 0 C9.04449911 3.13349732 8.93423645 3.98968256 8 7 C7.34 7 6.68 7 6 7 C5.67 5.68 5.34 4.36 5 3 C4.01 3 3.02 3 2 3 C1.34 3.66 0.68 4.32 0 5 C0 3.35 0 1.7 0 0 Z " fill="#D4ECF0" transform="translate(200,107)"/>
<path d="M0 0 C2.07717042 3.42122186 2.07717042 3.42122186 1.75 5.875 C1.5025 6.57625 1.255 7.2775 1 8 C0.649375 9.0725 0.29875 10.145 -0.0625 11.25 C-0.371875 12.1575 -0.68125 13.065 -1 14 C-1.33 14 -1.66 14 -2 14 C-2.05410687 12.22950311 -2.09284119 10.45853151 -2.125 8.6875 C-2.14820313 7.70136719 -2.17140625 6.71523437 -2.1953125 5.69921875 C-2 3 -2 3 0 0 Z " fill="#309BD6" transform="translate(293,125)"/>
<path d="M0 0 C0.33 0 0.66 0 1 0 C1 4.29 1 8.58 1 13 C-1.31 13 -3.62 13 -6 13 C-4.71034824 11.62437146 -3.37310707 10.29233607 -2 9 C-1.34 9 -0.68 9 0 9 C0 6.03 0 3.06 0 0 Z " fill="#0D7ABC" transform="translate(236,153)"/>
<path d="M0 0 C4 6 4 6 4 9 C2.35 9 0.7 9 -1 9 C-1.09765625 2.84765625 -1.09765625 2.84765625 -1 1 C-0.67 0.67 -0.34 0.34 0 0 Z " fill="#319ED8" transform="translate(291,143)"/>
<path d="M0 0 C0.99 0.33 1.98 0.66 3 1 C3.33 3.31 3.66 5.62 4 8 C2.68 8.33 1.36 8.66 0 9 C-0.87890625 2.84765625 -0.87890625 2.84765625 -1 1 C-0.67 0.67 -0.34 0.34 0 0 Z " fill="#EEECE1" transform="translate(203,109)"/>
<path d="M0 0 C-4.9748792 3.31658613 -11.03568353 4.38479461 -17 4 C-11.35084394 0.23389596 -6.59922601 -0.22755952 0 0 Z " fill="#54A1C3" transform="translate(256,186)"/>
<path d="M0 0 C0.33 0 0.66 0 1 0 C1.0868329 3.458176 1.14033282 6.91607344 1.1875 10.375 C1.22520508 11.85226563 1.22520508 11.85226563 1.26367188 13.359375 C1.27333984 14.30039063 1.28300781 15.24140625 1.29296875 16.2109375 C1.3086792 17.08024902 1.32438965 17.94956055 1.34057617 18.84521484 C1.22818604 19.55629395 1.1157959 20.26737305 1 21 C0.01 21.66 -0.98 22.32 -2 23 C-1.84660156 22.19304687 -1.69320312 21.38609375 -1.53515625 20.5546875 C-0.9111048 16.40952821 -0.65372796 12.3077704 -0.4375 8.125 C-0.39431641 7.34125 -0.35113281 6.5575 -0.30664062 5.75 C-0.20146649 3.83349351 -0.10032075 1.91676667 0 0 Z " fill="#0C74C1" transform="translate(202,160)"/>
<path d="M0 0 C2.97 0 5.94 0 9 0 C9 1.32 9 2.64 9 4 C6.36 3.67 3.72 3.34 1 3 C0.67 2.01 0.34 1.02 0 0 Z " fill="#14100A" transform="translate(236,52)"/>
<path d="M0 0 C0.33 0 0.66 0 1 0 C1.24875561 2.26877104 1.47339246 4.54019735 1.6875 6.8125 C1.81511719 8.07707031 1.94273437 9.34164062 2.07421875 10.64453125 C2 14 2 14 -1 17 C-0.67 11.39 -0.34 5.78 0 0 Z " fill="#62ACCD" transform="translate(268,165)"/>
<path d="M0 0 C3.3 0 6.6 0 10 0 C6 3 6 3 3 3 C3 3.99 3 4.98 3 6 C2.34 6 1.68 6 1 6 C0.67 4.02 0.34 2.04 0 0 Z " fill="#3B9ECF" transform="translate(205,74)"/>
<path d="M0 0 C0.66 0 1.32 0 2 0 C3.35439668 2.70879335 3.06501451 5.00933268 3 8 C1.68 8 0.36 8 -1 8 C-0.67 5.36 -0.34 2.72 0 0 Z " fill="#18120D" transform="translate(206,62)"/>
<path d="M0 0 C2.64 0.33 5.28 0.66 8 1 C8 1.99 8 2.98 8 4 C5.36 4 2.72 4 0 4 C0 2.68 0 1.36 0 0 Z " fill="#27A5DC" transform="translate(228,76)"/>
<path d="M0 0 C0.66 0.33 1.32 0.66 2 1 C2 4.3 2 7.6 2 11 C1.34 11 0.68 11 0 11 C-1.05404945 7.01803543 -0.84098656 4.01804691 0 0 Z " fill="#34A1DC" transform="translate(181,135)"/>
<path d="M0 0 C3 0 3 0 5.1875 1.625 C7.46170299 4.60499012 7.3327958 6.33924624 7 10 C6.67 10 6.34 10 6 10 C6 8.35 6 6.7 6 5 C5.34 5 4.68 5 4 5 C4 6.65 4 8.3 4 10 C3.67 10 3.34 10 3 10 C3 7.69 3 5.38 3 3 C2.01 2.67 1.02 2.34 0 2 C0 1.34 0 0.68 0 0 Z " fill="#3E8AB8" transform="translate(218,63)"/>
<path d="M0 0 C0.66 0.33 1.32 0.66 2 1 C2 3.64 2 6.28 2 9 C1.34 9 0.68 9 0 9 C-0.33 10.32 -0.66 11.64 -1 13 C-1.07654536 8.48382401 -1.10228696 4.40914783 0 0 Z " fill="#D5F4F9" transform="translate(255,151)"/>
<path d="M0 0 C1.65 0 3.3 0 5 0 C5.33 2.64 5.66 5.28 6 8 C5.01 8.495 5.01 8.495 4 9 C4 7.02 4 5.04 4 3 C2.68 3 1.36 3 0 3 C0 2.01 0 1.02 0 0 Z " fill="#3FA2D5" transform="translate(242,156)"/>
<path d="M0 0 C0.33 0 0.66 0 1 0 C0.67 5.28 0.34 10.56 0 16 C-0.33 16 -0.66 16 -1 16 C-1.22384382 14.27277272 -1.42839969 12.54303993 -1.625 10.8125 C-1.74101562 9.84957031 -1.85703125 8.88664062 -1.9765625 7.89453125 C-2.00194942 4.75924677 -1.34359283 2.80513465 0 0 Z " fill="#3A9BCF" transform="translate(283,104)"/>
<path d="M0 0 C1.65 0 3.3 0 5 0 C5 0.99 5 1.98 5 3 C4.34 3 3.68 3 3 3 C3 3.99 3 4.98 3 6 C2.01 6 1.02 6 0 6 C0 4.02 0 2.04 0 0 Z " fill="#26A1DC" transform="translate(213,59)"/>
<path d="M0 0 C2.64 0 5.28 0 8 0 C7.34 0.66 6.68 1.32 6 2 C6 3.32 6 4.64 6 6 C3.97945196 4.35830472 1.97956942 2.69088222 0 1 C0 0.67 0 0.34 0 0 Z " fill="#418EB5" transform="translate(261,57)"/>
<path d="M0 0 C1.98 0 3.96 0 6 0 C6.33 1.32 6.66 2.64 7 4 C4.69 4 2.38 4 0 4 C0 2.68 0 1.36 0 0 Z " fill="#1B1016" transform="translate(252,53)"/>
<path d="M0 0 C2.64 0 5.28 0 8 0 C8.33 0.99 8.66 1.98 9 3 C7.35 3.66 5.7 4.32 4 5 C3.67 3.68 3.34 2.36 3 1 C2.34 1 1.68 1 1 1 C0.67 1.66 0.34 2.32 0 3 C0 2.01 0 1.02 0 0 Z " fill="#091516" transform="translate(228,52)"/>
<path d="M0 0 C0.99 0 1.98 0 3 0 C3 1.32 3 2.64 3 4 C-0.63 4 -4.26 4 -8 4 C-8 3.67 -8 3.34 -8 3 C-6.865625 2.690625 -5.73125 2.38125 -4.5625 2.0625 C-1.21224901 1.37075469 -1.21224901 1.37075469 0 0 Z " fill="#1D6FBA" transform="translate(232,166)"/>
<path d="M0 0 C2.31 0.33 4.62 0.66 7 1 C7 1.66 7 2.32 7 3 C4.69 3.33 2.38 3.66 0 4 C0 2.68 0 1.36 0 0 Z " fill="#49A6D1" transform="translate(237,170)"/>
<path d="M0 0 C0.99 0 1.98 0 3 0 C3.28571429 8.57142857 3.28571429 8.57142857 1 12 C-0.3271261 8.0186217 -0.06915913 4.14954773 0 0 Z " fill="#4EA8D5" transform="translate(270,144)"/>
<path d="M0 0 C0.66 0.33 1.32 0.66 2 1 C2 3.97 2 6.94 2 10 C1.01 10 0.02 10 -1 10 C-0.67 6.7 -0.34 3.4 0 0 Z " fill="#339FE7" transform="translate(247,67)"/>
<path d="M0 0 C1.98 0 3.96 0 6 0 C5.34 0.66 4.68 1.32 4 2 C5.32 2.66 6.64 3.32 8 4 C5.36 4 2.72 4 0 4 C0 2.68 0 1.36 0 0 Z " fill="#071726" transform="translate(226,68)"/>
<path d="M0 0 C2.97 0 5.94 0 9 0 C7.02 0.99 7.02 0.99 5 2 C4.19471111 4.05000871 4.19471111 4.05000871 4 6 C2.62437146 4.71034824 1.29233607 3.37310707 0 2 C0 1.34 0 0.68 0 0 Z " fill="#428FB5" transform="translate(237,57)"/>
<path d="M0 0 C0.66 0 1.32 0 2 0 C2 0.66 2 1.32 2 2 C5.96 2 9.92 2 14 2 C14 2.33 14 2.66 14 3 C9.38 3.33 4.76 3.66 0 4 C0 2.68 0 1.36 0 0 Z " fill="#EBE7DE" transform="translate(222,143)"/>
<path d="M0 0 C0.33 0 0.66 0 1 0 C1.04254356 1.99954746 1.04080783 4.00041636 1 6 C0 7 0 7 -3.0625 7.0625 C-4.5165625 7.0315625 -4.5165625 7.0315625 -6 7 C-5.67 6.34 -5.34 5.68 -5 5 C-2.4375 4.375 -2.4375 4.375 0 4 C0 2.68 0 1.36 0 0 Z " fill="#64AAC0" transform="translate(253,164)"/>
<path d="M0 0 C-0.5859375 6.15234375 -0.5859375 6.15234375 -1 8 C-1.99 8.495 -1.99 8.495 -3 9 C-3 6.36 -3 3.72 -3 1 C-1 0 -1 0 0 0 Z " fill="#E7FDFE" transform="translate(261,120)"/>
<path d="M0 0 C1.32 0.33 2.64 0.66 4 1 C4 2.32 4 3.64 4 5 C2.68 5 1.36 5 0 5 C0 3.35 0 1.7 0 0 Z " fill="#26A4CE" transform="translate(262,75)"/>
<path d="M0 0 C1.65 0 3.3 0 5 0 C4.67 1.32 4.34 2.64 4 4 C2.68 4 1.36 4 0 4 C0 2.68 0 1.36 0 0 Z " fill="#161107" transform="translate(214,68)"/>
<path d="M0 0 C0.66 0.33 1.32 0.66 2 1 C2 2.65 2 4.3 2 6 C1.01 6.33 0.02 6.66 -1 7 C-1.04254356 5.00045254 -1.04080783 2.99958364 -1 1 C-0.67 0.67 -0.34 0.34 0 0 Z " fill="#0D74C5" transform="translate(196,108)"/>
<path d="M0 0 C1.9375 0.75 1.9375 0.75 4 2 C4.75 4.125 4.75 4.125 5 6 C3.125 5.75 3.125 5.75 1 5 C-0.25 2.9375 -0.25 2.9375 -1 1 C-0.67 0.67 -0.34 0.34 0 0 Z " fill="#170E09" transform="translate(239,65)"/>
<path d="M0 0 C1.98 0 3.96 0 6 0 C6.33 0.99 6.66 1.98 7 3 C4.69 3.33 2.38 3.66 0 4 C0 2.68 0 1.36 0 0 Z " fill="#269BCC" transform="translate(222,61)"/>
<path d="M0 0 C0 0.99 0 1.98 0 3 C-2.875 3.125 -2.875 3.125 -6 3 C-6.66 2.34 -7.32 1.68 -8 1 C-5.23735711 0.40267181 -2.83967231 0 0 0 Z " fill="#4FA6CB" transform="translate(267,182)"/>
<path d="M0 0 C1.65 0 3.3 0 5 0 C5 1.32 5 2.64 5 4 C3.0625 3.6875 3.0625 3.6875 1 3 C0.67 2.01 0.34 1.02 0 0 Z " fill="#1D0C0A" transform="translate(262,52)"/>
</svg>
