<?xml version="1.0" encoding="UTF-8"?>
<svg version="1.1" xmlns="http://www.w3.org/2000/svg" width="1200" height="1200">
<path d="M0 0 C281.16 0 562.32 0 852 0 C846.23561008 68.01980105 846.23561008 68.01980105 844.11988953 91.64702609 C843.78448393 95.39630392 843.45069947 99.14572626 843.1166591 102.89512593 C842.53793056 109.38874829 841.95828538 115.88228825 841.37794495 122.37576675 C840.51475327 132.03414992 839.65313505 141.69267305 838.79178442 151.35122055 C837.33948448 167.63577805 835.88600226 183.92022981 834.43181038 200.20461845 C832.99230954 216.32456272 831.55340178 232.44455976 830.11523247 248.56462288 C830.02494803 249.57659538 829.93466359 250.58856787 829.84164325 251.6312062 C829.38280095 256.77427705 828.92396955 261.91734888 828.46514278 267.06042112 C825.22916315 303.33293346 821.9920302 339.60534278 818.75415039 375.87768555 C815.62773427 410.90140935 812.50167386 445.92516486 809.3762207 480.94897461 C809.27996902 482.02756763 809.18371734 483.10616066 809.08454895 484.21743832 C806.87917663 508.93078967 804.67392299 533.6441516 802.46876431 558.35752201 C802.28074463 560.46466747 802.09272493 562.57181292 801.90470518 564.67895838 C801.71736583 566.77847985 801.5300265 568.87800132 801.34268719 570.97752279 C801.25021582 572.01385401 801.15774446 573.05018522 801.06247093 574.11792041 C800.59834736 579.31938152 800.13422629 584.52084284 799.67010992 589.72230459 C797.50596999 613.97629467 795.34150506 638.2302557 793.17643224 662.48416252 C791.81616685 677.72236732 790.45612048 692.96059167 789.09623606 708.19883048 C788.24218997 717.76876476 787.38800675 727.33868677 786.5334019 736.90857118 C786.17203984 740.95531912 785.81083016 745.00208056 785.44996887 749.04887319 C785.30860962 750.63397311 785.16724565 752.21907261 785.02587688 753.80417168 C784.95656422 754.58135039 784.88725157 755.35852909 784.81583853 756.15925867 C784.40640085 760.74774035 783.99529233 765.33606857 783.58277858 769.92427468 C783.24837554 773.64463778 782.91484558 777.36507869 782.58186531 781.08556938 C782.51661231 781.81465276 782.4513593 782.54373614 782.38412894 783.29491295 C781.40512479 794.25401134 780.47387175 805.21661013 779.56382573 816.1816336 C779.16425004 820.97920862 778.75782367 825.77620894 778.35129577 830.57319926 C777.96730296 835.11542017 777.59531999 839.65841551 777.23250139 844.20237408 C777.06221652 846.30873779 776.8857907 848.41447618 776.70653007 850.52009352 C776.48874122 853.07897165 776.28089437 855.63872241 776.08469143 858.1993461 C775.98601191 859.32250885 775.8873324 860.44567159 775.78566259 861.60286957 C775.7058242 862.57887031 775.62598581 863.55487105 775.54372808 864.56044758 C774.92110139 867.35399552 774.26899138 868.30098611 772 870 C769.61933537 870.85909249 767.32652054 871.57308414 764.8894043 872.22290039 C764.16000641 872.42600327 763.43060852 872.62910614 762.67910767 872.83836365 C760.23001442 873.51771053 757.77722278 874.18258113 755.32421875 874.84765625 C753.5700526 875.3311802 751.81613682 875.81561326 750.06245422 876.30088806 C746.27377948 877.34719675 742.48342492 878.38710077 738.69165039 879.42211914 C732.61008885 881.08218413 726.53235153 882.75595617 720.45507812 884.43164062 C711.91860427 886.78410703 703.38049003 889.13052669 694.84130859 891.47314453 C682.64639399 894.81937363 670.45691911 898.1850658 658.26953125 901.55859375 C657.30753437 901.82486069 656.34553749 902.09112762 655.35438919 902.36546326 C651.47613331 903.43895391 647.59790106 904.51252978 643.71972466 905.58630753 C636.89661932 907.47538879 630.0729633 909.36247086 623.24902344 911.24853516 C598.82794835 917.99872126 574.41273372 924.76972741 550.00193405 931.55697536 C543.41859065 933.38726032 536.83470323 935.2155776 530.25048828 937.04272461 C527.5019714 937.80551609 524.75345695 938.56831635 522.00494385 939.33112144 C520.1971929 939.83282218 518.38943334 940.33449194 516.58166504 940.83613014 C506.02549835 943.76567932 495.4719247 946.70421958 484.922616 949.65837383 C478.36321442 951.49499749 471.80201116 953.325073 465.23935604 955.15003681 C460.7481031 956.3994444 456.25934457 957.65730831 451.77238941 958.92205811 C449.05280874 959.68629015 446.33089403 960.44191494 443.60821724 961.19503403 C441.77998212 961.70345535 439.95461346 962.22214992 438.12937927 962.74124146 C426.06556294 966.05736264 417.78231142 964.41682121 405.99609375 961.03125 C404.47738172 960.60346671 402.95839156 960.17666979 401.43914795 959.7507782 C398.16351033 958.83052379 394.889742 957.90398375 391.61727905 956.97250366 C386.34264977 955.47140223 381.06397617 953.98490133 375.78442383 952.5012207 C373.95798806 951.98782422 372.13155682 951.4744116 370.30513 950.96098328 C369.38996424 950.70373663 368.47479847 950.44648998 367.53190041 950.18144798 C364.70787997 949.38707846 361.88424926 948.59133705 359.06071472 947.79524231 C340.91622076 942.68126654 322.7448001 937.66686382 304.56838989 932.66772461 C295.4547412 930.16104934 286.3425187 927.64919843 277.23046875 925.13671875 C276.31768095 924.88505825 275.40489315 924.63339775 274.46444511 924.37411118 C260.48916731 920.5204933 246.51840781 916.65078594 232.55078125 912.76953125 C231.15470579 912.38163894 231.15470579 912.38163894 229.73042679 911.98591042 C220.37385074 909.38602691 211.01786187 906.78404964 201.66319084 904.17731953 C197.02700738 902.88556248 192.3905471 901.59480176 187.75390625 900.3046875 C186.83474804 900.04893637 185.91558983 899.79318523 184.96857834 899.52968407 C171.0431367 895.65727388 157.10355015 891.83868935 143.15604782 888.04656219 C137.03484557 886.38112135 130.91531218 884.70955426 124.79567528 883.03837204 C118.9482946 881.44260112 113.09797647 879.85821827 107.24527645 878.28207588 C103.65634267 877.31284903 100.07027508 876.33334448 96.48492622 875.35094833 C94.81760103 874.89649414 93.14905238 874.44650286 91.4792614 874.001194 C89.20672916 873.39461469 86.9389159 872.77283115 84.67163086 872.14697266 C82.76383095 871.63053696 82.76383095 871.63053696 80.81748962 871.10366821 C79.88771805 870.7394577 78.95794647 870.37524719 78 870 C77.07858937 867.23576812 76.7367202 865.07142806 76.48039031 862.19156498 C76.38973524 861.19303842 76.29908018 860.19451187 76.20567799 859.16572693 C76.10934291 858.06342168 76.01300783 856.96111642 75.91375351 855.82540798 C75.8084385 854.65343523 75.7031235 853.48146248 75.59461713 852.2739754 C75.30118807 849.00029059 75.01104597 845.72634364 74.72224225 842.45224945 C74.40771792 838.89566616 74.08898835 835.33945944 73.7707808 831.78320414 C73.21270345 825.53959497 72.65734065 819.29574889 72.10372543 813.05174255 C71.27980859 803.7592537 70.45173857 794.46713827 69.62280462 785.1750958 C68.22532692 769.50854345 66.83125283 753.84168995 65.43907928 738.17466545 C64.05162327 722.56086443 62.66264563 706.94719996 61.27167511 691.33371162 C61.18490428 690.35970907 61.09813344 689.38570651 61.00873319 688.38218872 C60.56774064 683.43213533 60.12672135 678.48208432 59.68569186 673.53203423 C56.55252535 638.36528352 53.42273859 603.19823276 50.29492188 568.03100586 C47.28812507 534.22454225 44.2798825 500.41820784 41.26953125 466.61206055 C41.17772302 465.58105023 41.08591479 464.55003991 40.9913245 463.48778685 C40.06788542 453.11754571 39.14441525 442.74730734 38.22092278 432.37707095 C36.30581045 410.87155991 34.39091288 389.36602974 32.47613525 367.86048889 C32.34266634 366.36145704 32.34266634 366.36145704 32.20650109 364.83214172 C29.6207964 335.79115362 27.03586435 306.75009684 24.45185528 277.70895781 C24.20541773 274.9393019 23.95897654 272.1696463 23.71253476 269.39999076 C22.11966674 251.49833046 20.52695794 233.59665602 18.93482427 215.69493039 C18.16980346 207.09315258 17.40469016 198.49138301 16.63952637 189.88961792 C16.52720622 188.62692016 16.52720622 188.62692016 16.41261697 187.33871335 C14.23786028 162.89066339 12.0588391 138.4429967 9.8762951 113.99564073 C9.32757347 107.84908839 8.77907269 101.70251637 8.23072743 95.55593044 C8.15482512 94.70512898 8.07892281 93.85432753 8.00072043 92.97774421 C7.69794734 89.58386611 7.39518024 86.18998747 7.09244137 82.79610632 C6.21936616 73.00850664 5.34549846 63.22097857 4.47019875 53.43357757 C3.93432489 47.44086876 3.39937181 41.44807822 2.86516245 35.4552208 C2.55882459 32.01906886 2.25203563 28.58295869 1.94407398 25.14695187 C1.61204346 21.44003691 1.28161624 17.7329825 0.95160294 14.02588749 C0.85393745 12.94000467 0.75627196 11.85412186 0.65564691 10.7353335 C0.56831879 9.75062287 0.48099067 8.76591225 0.39101624 7.75136191 C0.31493646 6.8998501 0.23885668 6.0483383 0.16047145 5.1710231 C0.03335129 3.45121061 0 1.72450415 0 0 Z " fill="#E44D26" transform="translate(174,235)"/>
<path d="M0 0 C175.89 0 351.78 0 533 0 C532.41608544 11.09437657 531.81770398 21.98994411 530.625 33 C529.44531376 44.32498788 528.39446945 55.6541727 527.4375 67 C527.31157087 68.48551834 527.18559477 69.97103271 527.05957031 71.45654297 C526.60173715 76.86054083 526.14618386 82.26473064 525.69091797 87.66894531 C525.42346376 90.82137508 525.15024992 93.97324295 524.875 97.125 C524.79950928 98.03121094 524.72401855 98.93742187 524.64624023 99.87109375 C524.1144606 105.8855394 524.1144606 105.8855394 523 107 C520.84727357 107.09802644 518.69125674 107.12371151 516.53629971 107.12304783 C515.50634936 107.1247786 515.50634936 107.1247786 514.45559195 107.12654433 C512.12584283 107.12921762 509.7961611 107.12468303 507.46641541 107.12025452 C505.79088324 107.12069007 504.11535113 107.12156469 502.4398194 107.12284368 C497.81303117 107.1250917 493.18626585 107.12106319 488.55948055 107.11606562 C483.57853816 107.11176568 478.59759716 107.11320722 473.61665344 107.1139679 C464.97934091 107.11449342 456.3420359 107.11134364 447.70472527 107.10573006 C435.21647034 107.09761892 422.72821908 107.09500023 410.23996181 107.09374207 C389.98085464 107.09155094 369.72175148 107.08488921 349.46264648 107.07543945 C329.77742534 107.06626691 310.09220528 107.05918531 290.40698242 107.05493164 C289.19452494 107.05466892 287.98206746 107.05440619 286.73286884 107.05413551 C280.65060655 107.05283052 274.56834426 107.0515668 268.48608196 107.05032361 C217.99071853 107.0399491 167.49535946 107.02232913 117 107 C117.11275269 108.17382736 117.22550537 109.34765472 117.3416748 110.55705261 C118.40765852 121.66308751 119.46713065 132.76972724 120.52036285 143.87697887 C121.06193945 149.58618788 121.6057434 155.29516578 122.15478516 161.00366211 C122.68535433 166.52098059 123.2098799 172.03884432 123.73036194 177.55712318 C123.92916831 179.65385416 124.13008778 181.75038598 124.33323669 183.84670067 C124.61917012 186.80117757 124.89732257 189.75629772 125.17382812 192.71166992 C125.25798477 193.56260223 125.34214142 194.41353455 125.42884827 195.29025269 C126.06984789 202.27884919 126 208.88780785 126 216 C253.71 216 381.42 216 513 216 C513 225.31962183 512.78751428 234.18688944 511.86328125 243.3984375 C511.74377609 244.6459227 511.62427094 245.8934079 511.50114441 247.17869568 C511.24433438 249.85273899 510.98527373 252.52644071 510.72216797 255.19985962 C510.3024631 259.46679374 509.89240885 263.73462136 509.484375 268.00268555 C509.41536673 268.72432986 509.34635845 269.44597418 509.27525902 270.1894865 C509.13528271 271.65345735 508.99533615 273.11743103 508.85541916 274.58140755 C508.64400916 276.790612 508.43178807 278.9997373 508.21939087 281.20884705 C506.92006739 294.7381425 505.6977566 308.27384477 504.5 321.8125 C504.29790346 324.09058078 504.09575459 326.36865691 503.89355469 328.64672852 C503.58440122 332.13119893 503.27540149 335.61568269 502.96682739 339.10020447 C501.86358177 351.55589138 500.74782394 364.01045131 499.63138676 376.46496105 C499.18817696 381.40930288 498.7454606 386.3536887 498.30297852 391.2980957 C497.0902341 404.8477718 495.87484972 418.39720127 494.65283775 431.94604492 C494.08013843 438.29728048 493.50848999 444.64861055 492.9375 451 C492.87571941 451.68718361 492.81393883 452.37436722 492.7502861 453.08237457 C490.05763603 483.04574755 487.50433742 513.02031445 485 543 C484.23805832 543.19535843 483.47611664 543.39071686 482.69108582 543.59199524 C479.18282882 544.492792 475.67539799 545.39676704 472.16796875 546.30078125 C470.37063293 546.76152039 470.37063293 546.76152039 468.5369873 547.23156738 C461.4133856 549.07034632 454.34361457 551.02182312 447.3125 553.1875 C441.57093852 554.95010619 435.84040847 556.59686586 430 558 C423.92988899 559.46857525 417.97140215 561.17260842 412 563 C405.34786141 565.03375476 398.6926226 566.89413264 391.93310547 568.53344727 C384.66778336 570.3019916 377.47926673 572.33308732 370.28222656 574.35888672 C366.52390951 575.414657 362.76179211 576.45669367 359 577.5 C357.49998134 577.91659949 355.99998135 578.33326619 354.5 578.75 C339.5 582.91666667 324.5 587.08333333 309.5 591.25 C308.38564575 591.5596167 308.38564575 591.5596167 307.2487793 591.87548828 C305.7529509 592.29089693 304.25702028 592.70593768 302.76098633 593.12060547 C298.1693824 594.3939116 293.58192118 595.68097362 288.99731445 596.97924805 C286.71860243 597.61630473 284.43427823 598.22894029 282.1484375 598.83984375 C279.61963232 599.52155651 277.25296529 600.27718441 274.7890625 601.19140625 C263.59380707 604.93785 252.81029861 600.34322209 242 597 C240.29346995 596.48661226 238.58646294 595.97480641 236.87890625 595.46484375 C234.44180221 594.73490042 232.00596167 594.00182647 229.57348633 593.2565918 C222.14939018 590.99342681 214.65577317 589.04049007 207.14013672 587.10717773 C201.03160923 585.53489498 194.95595802 583.88505439 188.8984375 582.125 C183.52648905 580.56587476 178.13688926 579.06898937 172.75 577.5625 C171.6583252 577.25707275 170.56665039 576.95164551 169.44189453 576.63696289 C162.5925774 574.72187459 155.74112836 572.81460552 148.88769531 570.91430664 C141.334085 568.81844336 133.7864668 566.7012374 126.23828125 564.5859375 C120.16085055 562.88336861 114.08196112 561.18631085 108 559.5 C99.75420267 557.21373457 91.51397269 554.90772399 83.27563477 552.59472656 C78.4154195 551.23116306 73.5539716 549.87373187 68.68359375 548.546875 C67.47123047 548.21526367 67.47123047 548.21526367 66.234375 547.87695312 C64.76779191 547.4766358 63.30041588 547.07920472 61.83203125 546.68554688 C58.40697659 545.74869369 55.08060821 544.69045641 51.76000977 543.42871094 C51.05215836 543.1605658 50.34430695 542.89242065 49.61500549 542.6161499 C48.81557777 542.3111557 48.81557777 542.3111557 48 542 C47.92784775 541.15843353 47.8556955 540.31686707 47.78135681 539.44979858 C46.91390856 529.33615497 46.0441203 519.22271379 45.17299271 509.10938644 C45.01650963 507.29240786 44.86008378 505.47542435 44.70371628 503.65843582 C42.83524137 481.94696495 40.94385035 460.23791857 38.9765625 438.53515625 C38.81317008 436.73006243 38.649784 434.92496803 38.48640442 433.11987305 C37.78252933 425.34904771 37.0761762 417.57846867 36.36149597 409.80862904 C36.06877421 406.61904784 35.77887788 403.42921396 35.48962021 400.23931694 C35.35549495 398.76779648 35.22008403 397.29639251 35.08325577 395.82512093 C34.89604597 393.81137002 34.7136678 391.79717172 34.53149414 389.78295898 C34.42825333 388.65937485 34.32501251 387.53579071 34.21864319 386.37815857 C33.97363586 382.59265934 34 378.7934197 34 375 C69.31 375 104.62 375 141 375 C141.969375 385.4775 142.93875 395.955 143.9375 406.75 C144.24163818 410.01358398 144.54577637 413.27716797 144.85913086 416.63964844 C146.2216694 431.41658263 147.48027147 446.16432047 148 461 C149.84331909 461.21716675 149.84331909 461.21716675 151.72387695 461.4387207 C154.67211064 461.80819721 157.53268249 462.25712914 160.41796875 462.98046875 C161.18625 463.17189453 161.95453125 463.36332031 162.74609375 463.56054688 C163.55175781 463.76744141 164.35742188 463.97433594 165.1875 464.1875 C166.05117188 464.40599609 166.91484375 464.62449219 167.8046875 464.84960938 C174.95838926 466.68190672 182.05119295 468.70594364 189.14135742 470.76831055 C195.06476534 472.48019899 201.01034643 474.03795858 207 475.5 C214.76461574 477.39529991 222.43847944 479.52559614 230.11157227 481.76074219 C237.17573503 483.80304151 244.28185969 485.62622475 251.4296875 487.3515625 C254.75889306 488.16032126 257.96070504 488.98595578 261.19140625 490.140625 C267.01507156 491.92255319 271.73637892 490.6928566 277.375 488.875 C284.52830528 486.66513962 291.72741165 484.77601125 299 483 C305.88317955 481.31219931 312.71986437 479.56467785 319.5 477.5 C326.28018608 475.43530679 333.1170143 473.68871446 340 472 C347.7544699 470.09645894 355.43985997 468.07218292 363.08374023 465.76489258 C370.01272921 463.67465469 376.99944994 461.83445349 384 460 C385.36191146 450.29576244 386.48452378 440.61209889 387.33203125 430.84765625 C387.4514224 429.50106747 387.57111683 428.15450556 387.69108582 426.80796814 C388.0060502 423.26407642 388.31713049 419.71985493 388.6272583 416.17553711 C388.92445393 412.78545056 389.22504862 409.39566868 389.52539062 406.00585938 C390.35156949 396.67068868 391.17569187 387.33533607 392 378 C393.65 359.52 395.3 341.04 397 322 C275.56 322 154.12 322 29 322 C24.21414343 274.14143432 24.21414343 274.14143432 22.05111694 250.8899231 C21.75863116 247.74736264 21.46565554 244.60484857 21.17227173 241.46237183 C18.9667968 217.82277032 16.86370844 194.175875 14.84197998 170.51989746 C13.1362611 150.57819947 11.33121571 130.64679451 9.47265625 110.71875 C9.36121466 109.52260511 9.24977306 108.32646023 9.13495445 107.09406853 C8.01343311 95.05755491 6.88858342 83.02137002 5.75215816 70.98625374 C5.32412353 66.44523804 4.89931935 61.90392339 4.47511101 57.36254883 C4.27849528 55.26588167 4.08047789 53.1693453 3.88080025 51.07296753 C2.2606881 34.05783937 1.13781422 17.06721335 0 0 Z " fill="#FEFEFE" transform="translate(333,413)"/>
<path d="M0 0 C114.51 0 229.02 0 347 0 C347 10.12513413 347 10.12513413 346.61845398 14.43115234 C346.5334089 15.41267682 346.44836382 16.3942013 346.36074162 17.40546894 C346.21830855 18.97980088 346.21830855 18.97980088 346.07299805 20.5859375 C345.97337234 21.72214885 345.87374662 22.8583602 345.77110195 24.02900219 C345.43844595 27.81134811 345.10012135 31.59316422 344.76171875 35.375 C344.52236946 38.07653964 344.28416044 40.77817959 344.04586792 43.47981262 C343.46724516 50.0313109 342.88422553 56.58241088 342.29966545 63.13338178 C341.82051174 68.50433321 341.34324651 73.87544971 340.86715698 79.24667358 C336.93999637 123.54922788 332.94117934 167.84503803 328.89315796 212.13671875 C325.08602938 253.79744779 321.37977536 295.46647705 317.70800304 337.13930893 C313.67867651 382.86938564 309.61100892 428.59530715 305.4375 474.3125 C305.32736698 475.51897438 305.21723396 476.72544876 305.10376358 477.96848297 C304.88177325 480.4002967 304.65978107 482.83211026 304.43778706 485.26392365 C303.88019251 491.37254479 303.32280972 497.48118521 302.765625 503.58984375 C302.65492865 504.80335762 302.54423229 506.01687149 302.4301815 507.26715851 C299.47892789 539.63311085 296.58261713 572.00398724 293.6875 604.375 C293.56352138 605.76114022 293.43954245 607.1472804 293.3155632 608.53342056 C292.71850235 615.20903705 292.12161803 621.88466928 291.5249176 628.56031799 C291.06136051 633.74640872 290.59750393 638.93247252 290.13340759 644.11851501 C289.07707198 655.92603382 288.02262487 667.73370568 286.97666019 679.54214752 C286.42302382 685.79231176 285.86795304 692.04234757 285.31195599 698.29230225 C284.91327435 702.77528912 284.51658014 707.25844594 284.12138224 711.74174118 C283.81950128 715.15953494 283.51461326 718.57705933 283.21020508 721.99462891 C283.10219637 723.2270293 282.99418766 724.4594297 282.88290596 725.72917557 C282.78098379 726.86733089 282.67906162 728.00548622 282.5740509 729.1781311 C282.48683682 730.1631492 282.39962275 731.1481673 282.30976582 732.16303444 C281.98543017 735.13343661 281.5180231 738.05771665 281 741 C245.05916868 751.53347755 245.05916868 751.53347755 227.8125 756.0625 C216.38705493 759.0636041 205.02329499 762.24250196 193.67175293 765.50900269 C181.55847645 768.99440762 169.42472946 772.39844865 157.27575684 775.75720215 C147.37679287 778.49471573 137.49364249 781.27961279 127.625 784.125 C118.320885 786.80546331 108.98894266 789.34961062 99.625 791.8125 C87.21286375 795.07919533 74.88919232 798.60792343 62.57089233 802.21038818 C50.38326079 805.77179393 38.16594931 809.16800742 25.87695312 812.36328125 C19.07195953 814.14020621 12.35817065 816.0894593 5.66430664 818.25024414 C3 819 3 819 0 819 C-0.33 782.7 -0.66 746.4 -1 709 C3.96513363 707.13807489 8.38646896 705.53549649 13.4375 704.25 C20.31896776 702.46889321 27.15988897 700.55842806 34 698.625 C42.39319487 696.25733046 50.80429189 693.985249 59.25 691.8125 C66.05765273 690.06063073 72.78114263 688.18438053 79.48046875 686.05078125 C84.22567749 684.63406521 89.01586966 683.41691521 93.8125 682.1875 C101.92271714 680.10686838 109.97254148 677.87981598 118 675.5 C126.99924508 672.83208871 136.0368555 670.38896001 145.12890625 668.05859375 C150.95893784 666.55667425 156.70141673 664.89316487 162.4375 663.0625 C167.4244319 661.57516943 172.4602708 660.29523126 177.5 659 C184.79769721 657.12406805 192.01827081 655.15030857 199.203125 652.87890625 C202.12486661 651.96076119 205.0541968 651.08776149 208 650.25 C208.845625 650.00765625 209.69125 649.7653125 210.5625 649.515625 C213.11311708 648.97607139 215.40103272 648.96432366 218 649 C217.98083023 647.9350808 217.98083023 647.9350808 217.96127319 646.84864807 C217.8827493 639.01053983 218.36672152 631.32735188 219.1015625 623.52734375 C219.28082468 621.55164878 219.46008686 619.57595381 219.63934898 617.60025883 C219.83107338 615.49893538 220.0254725 613.39787544 220.22070312 611.296875 C220.6342937 606.84553906 221.04034766 602.39353411 221.4453125 597.94140625 C221.94079797 592.49911647 222.43796169 587.05698543 222.93735886 581.61505318 C223.81132313 572.08947858 224.67202185 562.56277137 225.5234375 553.03515625 C225.58461384 552.35066469 225.64579018 551.66617313 225.70882034 550.96093941 C226.0164426 547.51819874 226.32381024 544.0754354 226.63104248 540.63265991 C227.19015507 534.36836336 227.7511281 528.10423334 228.31212234 521.84010506 C228.49981331 519.74427215 228.68745281 517.64843463 228.87509155 515.55259705 C229.6854173 506.50324226 230.49835363 497.45412427 231.31246567 488.40510941 C234.20030371 456.30135678 237.04555719 424.19430763 239.8203125 392.08056641 C241.84134497 368.71668469 243.92361648 345.35931459 246 322 C118.29 322 -9.42 322 -141 322 C-150 223 -150 223 -150 213 C-16.02 212.67 117.96 212.34 256 212 C259.20444051 178.45326094 259.20444051 178.45326094 262.19140625 144.890625 C263.37119861 131.9186085 264.70390869 118.96091314 266 106 C178.22 106 90.44 106 0 106 C0 71.02 0 36.04 0 0 Z " fill="#F16529" transform="translate(600,307)"/>
<path d="M0 0 C175.89 0 351.78 0 533 0 C532.41608544 11.09437657 531.81770398 21.98994411 530.625 33 C529.44531376 44.32498788 528.39446945 55.6541727 527.4375 67 C527.31157087 68.48551834 527.18559477 69.97103271 527.05957031 71.45654297 C526.60173715 76.86054083 526.14618386 82.26473064 525.69091797 87.66894531 C525.42346376 90.82137508 525.15024992 93.97324295 524.875 97.125 C524.79950928 98.03121094 524.72401855 98.93742187 524.64624023 99.87109375 C524.1144606 105.8855394 524.1144606 105.8855394 523 107 C520.84727357 107.09802644 518.69125674 107.12371151 516.53629971 107.12304783 C515.50634936 107.1247786 515.50634936 107.1247786 514.45559195 107.12654433 C512.12584283 107.12921762 509.7961611 107.12468303 507.46641541 107.12025452 C505.79088324 107.12069007 504.11535113 107.12156469 502.4398194 107.12284368 C497.81303117 107.1250917 493.18626585 107.12106319 488.55948055 107.11606562 C483.57853816 107.11176568 478.59759716 107.11320722 473.61665344 107.1139679 C464.97934091 107.11449342 456.3420359 107.11134364 447.70472527 107.10573006 C435.21647034 107.09761892 422.72821908 107.09500023 410.23996181 107.09374207 C389.98085464 107.09155094 369.72175148 107.08488921 349.46264648 107.07543945 C329.77742534 107.06626691 310.09220528 107.05918531 290.40698242 107.05493164 C289.19452494 107.05466892 287.98206746 107.05440619 286.73286884 107.05413551 C280.65060655 107.05283052 274.56834426 107.0515668 268.48608196 107.05032361 C217.99071853 107.0399491 167.49535946 107.02232913 117 107 C117.11275269 108.17382736 117.22550537 109.34765472 117.3416748 110.55705261 C118.40765852 121.66308751 119.46713065 132.76972724 120.52036285 143.87697887 C121.06193945 149.58618788 121.6057434 155.29516578 122.15478516 161.00366211 C122.68535433 166.52098059 123.2098799 172.03884432 123.73036194 177.55712318 C123.92916831 179.65385416 124.13008778 181.75038598 124.33323669 183.84670067 C124.61917012 186.80117757 124.89732257 189.75629772 125.17382812 192.71166992 C125.25798477 193.56260223 125.34214142 194.41353455 125.42884827 195.29025269 C126.06984789 202.27884919 126 208.88780785 126 216 C172.53 216 219.06 216 267 216 C267 250.98 267 285.96 267 322 C188.46 322 109.92 322 29 322 C24.21414343 274.14143432 24.21414343 274.14143432 22.05111694 250.8899231 C21.75863116 247.74736264 21.46565554 244.60484857 21.17227173 241.46237183 C18.9667968 217.82277032 16.86370844 194.175875 14.84197998 170.51989746 C13.1362611 150.57819947 11.33121571 130.64679451 9.47265625 110.71875 C9.36121466 109.52260511 9.24977306 108.32646023 9.13495445 107.09406853 C8.01343311 95.05755491 6.88858342 83.02137002 5.75215816 70.98625374 C5.32412353 66.44523804 4.89931935 61.90392339 4.47511101 57.36254883 C4.27849528 55.26588167 4.08047789 53.1693453 3.88080025 51.07296753 C2.2606881 34.05783937 1.13781422 17.06721335 0 0 Z " fill="#EBEAEA" transform="translate(333,413)"/>
<path d="M0 0 C35.31 0 70.62 0 107 0 C107.969375 10.4775 108.93875 20.955 109.9375 31.75 C110.24163818 35.01358398 110.54577637 38.27716797 110.85913086 41.63964844 C112.2216694 56.41658263 113.48027147 71.16432047 114 86 C115.84331909 86.21716675 115.84331909 86.21716675 117.72387695 86.4387207 C120.67211064 86.80819721 123.53268249 87.25712914 126.41796875 87.98046875 C127.18625 88.17189453 127.95453125 88.36332031 128.74609375 88.56054688 C129.95458984 88.87088867 129.95458984 88.87088867 131.1875 89.1875 C132.05117188 89.40599609 132.91484375 89.62449219 133.8046875 89.84960938 C140.95838926 91.68190672 148.05119295 93.70594364 155.14135742 95.76831055 C161.06476534 97.48019899 167.01034643 99.03795858 173 100.5 C180.7668572 102.39584703 188.44306263 104.526396 196.11816406 106.76293945 C203.09150169 108.77958496 210.1051632 110.57979842 217.16601562 112.26367188 C222.60036787 113.57762225 227.65076946 115.21692315 233 117 C233 153.63 233 190.26 233 228 C217.17370996 224.60865214 217.17370996 224.60865214 209.5625 222.1875 C202.2532338 219.92672697 194.91325495 217.89122525 187.5 216 C179.29159733 213.90322869 171.17877919 211.59688383 163.07958984 209.11376953 C157.30819174 207.35715611 151.51184785 205.81824173 145.65014648 204.39575195 C140.27397106 203.08755606 134.96543977 201.59662088 129.65234375 200.0546875 C125.67129068 198.90507859 121.68115966 197.79230885 117.6875 196.6875 C110.28795779 194.63816044 102.89315316 192.57226833 95.5 190.5 C88.33548775 188.49217617 81.17004041 186.48799642 74 184.5 C65.75420267 182.21373457 57.51397269 179.90772399 49.27563477 177.59472656 C44.4154195 176.23116306 39.5539716 174.87373187 34.68359375 173.546875 C33.47123047 173.21526367 33.47123047 173.21526367 32.234375 172.87695312 C30.76779191 172.4766358 29.30041588 172.07920472 27.83203125 171.68554688 C24.40697659 170.74869369 21.08060821 169.69045641 17.76000977 168.42871094 C16.69823265 168.02649323 16.69823265 168.02649323 15.61500549 167.6161499 C14.81557777 167.3111557 14.81557777 167.3111557 14 167 C13.92784775 166.15843353 13.8556955 165.31686707 13.78135681 164.44979858 C12.91390856 154.33615497 12.0441203 144.22271379 11.17299271 134.10938644 C11.01650963 132.29240786 10.86008378 130.47542435 10.70371628 128.65843582 C8.83524137 106.94696495 6.94385035 85.23791857 4.9765625 63.53515625 C4.81317008 61.73006243 4.649784 59.92496803 4.48640442 58.11987305 C3.78252933 50.34904771 3.0761762 42.57846867 2.36149597 34.80862904 C2.06877421 31.61904784 1.77887788 28.42921396 1.48962021 25.23931694 C1.35549495 23.76779648 1.22008403 22.29639251 1.08325577 20.82512093 C0.89604597 18.81137002 0.7136678 16.79717172 0.53149414 14.78295898 C0.42825333 13.65937485 0.32501251 12.53579071 0.21864319 11.37815857 C-0.02636414 7.59265934 0 3.7934197 0 0 Z " fill="#EBEAEA" transform="translate(367,788)"/>
<path d="M0 0 C87.78 0 175.56 0 266 0 C265.40408901 10.72639775 264.7705913 21.28432619 263.625 31.9375 C262.30424713 44.66252458 261.15738155 57.39572342 260.09033203 70.14428711 C259.11566693 81.76906938 258.05626806 93.3810513 257 105 C172.19 105 87.38 105 0 105 C0 70.35 0 35.7 0 0 Z " fill="#FEFEFE" transform="translate(600,414)"/>
<path d="M0 0 C19.14 0 38.28 0 58 0 C70.17531204 13.54332463 70.17531204 13.54332463 73.50830078 24.02050781 C75.668986 30.22103171 79.36163223 35.56064242 82.93914795 41.02130127 C84.71113245 43.74816446 86.40009178 46.52310235 88.09765625 49.296875 C89.06497607 50.86466238 90.03237005 52.43240402 91 54 C93.88366695 50.52863242 96.32973723 46.99221827 98.65234375 43.125 C98.99318497 42.56039062 99.33402618 41.99578125 99.68519592 41.4140625 C100.77268828 39.61139138 101.85537263 37.80589578 102.9375 36 C110.18939144 23.93454413 117.58921507 11.97126797 125 0 C144.14 0 163.28 0 183 0 C183 53.46 183 106.92 183 162 C164.85 162 146.7 162 128 162 C127.67 136.92 127.34 111.84 127 86 C123.37 91.61 119.74 97.22 116 103 C113.83467205 106.3342218 111.6685993 109.66791164 109.5 113 C103.65218467 121.99065118 97.82209241 130.99267466 92 140 C88.6537195 138.88457317 88.41205057 138.51955008 86.6796875 135.66015625 C86.2350415 134.93932861 85.79039551 134.21850098 85.33227539 133.47583008 C84.85137451 132.67943115 84.37047363 131.88303223 83.875 131.0625 C82.81081403 129.33717022 81.7442684 127.61329439 80.67578125 125.890625 C80.09393066 124.95154297 79.51208008 124.01246094 78.91259766 123.04492188 C75.37647999 117.41529978 71.71451714 111.86731445 68.0625 106.3125 C66.63610911 104.14232766 65.21030068 101.97177234 63.78515625 99.80078125 C63.17551025 98.87434814 62.56586426 97.94791504 61.93774414 96.9934082 C59.58303018 93.35586909 57.2965759 89.67452144 55 86 C54.67 111.08 54.34 136.16 54 162 C36.18 162 18.36 162 0 162 C0 108.54 0 55.08 0 0 Z " fill="#000000" transform="translate(608,0)"/>
<path d="M0 0 C17.82 0 35.64 0 54 0 C54 17.49 54 34.98 54 53 C70.17 53 86.34 53 103 53 C103 35.51 103 18.02 103 0 C121.15 0 139.3 0 158 0 C158 53.46 158 106.92 158 162 C139.85 162 121.7 162 103 162 C103 144.18 103 126.36 103 108 C87.16 108 71.32 108 55 108 C55 125.82 55 143.64 55 162 C36.85 162 18.7 162 0 162 C0 108.54 0 55.08 0 0 Z " fill="#000000" transform="translate(254,0)"/>
<path d="M0 0 C42.9 0 85.8 0 130 0 C130 8.52674738 129.94621908 16.58748612 129.08203125 24.9921875 C128.98458618 25.99737427 128.88714111 27.00256104 128.78674316 28.03820801 C128.46786643 31.31774312 128.14010558 34.59632647 127.8125 37.875 C127.35094187 42.59343827 126.89421657 47.31234095 126.4375 52.03125 C126.31933426 53.24597992 126.20116852 54.46070984 126.079422 55.71224976 C125.21828688 64.60660201 124.40785915 73.50468535 123.625 82.40625 C123.51419601 83.66462677 123.40339203 84.92300354 123.28923035 86.21951294 C122.8576397 91.13241037 122.4273805 96.04541137 122.00283813 100.95892334 C121.44584166 107.40128547 120.86539325 113.84039731 120.24761963 120.27722168 C120.01914887 122.78944263 119.83292307 125.30099706 119.65771484 127.81738281 C119.37648238 131.3045406 119.00659016 134.63291368 118 138 C115.08284357 140.25204476 114.39901305 140.50821817 111 141 C109.26627029 141.45748358 107.53464386 141.92297963 105.8046875 142.39453125 C103.82928303 142.87200422 101.85265073 143.34441793 99.875 143.8125 C91.94834616 145.73731989 84.07931226 147.77321442 76.25 150.0625 C68.71201655 152.26231994 61.14644371 154.24376949 53.51855469 156.10571289 C47.4686911 157.59680118 41.48247237 159.25935276 35.5 161 C23.77935248 164.40719048 11.97297389 167.60540522 0 170 C0 113.9 0 57.8 0 0 Z " fill="#F16529" transform="translate(600,735)"/>
<path d="M0 0 C49.5 0 99 0 150 0 C150 35.64 150 71.28 150 108 C103.47 108 56.94 108 9 108 C7.515 92.03625 6.03 76.0725 4.5 59.625 C4.03013672 54.59975098 3.56027344 49.57450195 3.07617188 44.39697266 C2.50488281 38.22143555 2.50488281 38.22143555 2.23791504 35.32284546 C2.05209953 33.31479499 1.86448771 31.30691022 1.67541504 29.29916382 C1.38803013 26.24360696 1.10649653 23.18755929 0.82617188 20.13134766 C0.74185661 19.24922922 0.65754135 18.36711079 0.57067108 17.45826149 C0.03849781 11.5664793 0 5.96863736 0 0 Z " fill="#E44D26" transform="translate(450,520)"/>
<path d="M0 0 C49.5 0 99 0 150 0 C150 17.82 150 35.64 150 54 C134.16 54 118.32 54 102 54 C102 89.64 102 125.28 102 162 C83.85 162 65.7 162 47 162 C47 126.36 47 90.72 47 54 C31.49 54 15.98 54 0 54 C0 36.18 0 18.36 0 0 Z " fill="#000000" transform="translate(435,0)"/>
<path d="M0 0 C18.15 0 36.3 0 55 0 C55 35.64 55 71.28 55 108 C80.08 108 105.16 108 131 108 C131 125.82 131 143.64 131 162 C87.77 162 44.54 162 0 162 C0 108.54 0 55.08 0 0 Z " fill="#000000" transform="translate(817,0)"/>
</svg>
