<?xml version="1.0" encoding="UTF-8"?>
<svg version="1.1" xmlns="http://www.w3.org/2000/svg" width="946" height="1024">
<path d="M0 0 C4.5309863 0.0061584 9.06197171 0.00945425 13.59296103 0.0124693 C33.0473637 0.02549669 52.50171858 0.05641697 71.95608616 0.09498715 C72.71648559 0.09649349 73.47688502 0.09799982 74.26032686 0.0995518 C115.70131407 0.18211477 157.14219007 0.29750319 198.58303165 0.43434834 C199.40533851 0.43706301 200.22764537 0.43977767 201.07487062 0.4425746 C201.89797761 0.44529231 202.7210846 0.44801001 203.56913424 0.45081007 C204.39304043 0.45352987 205.21694663 0.45624967 206.06581968 0.45905189 C207.7318654 0.46455259 209.39791111 0.47005785 211.0639568 0.47556765 C224.71666185 0.52062554 238.36937685 0.56102261 252.02210149 0.59963977 C266.31166051 0.64011855 280.60120481 0.68416664 294.89074159 0.7318657 C302.80917307 0.75822107 310.72760256 0.78314577 318.64605045 0.80406117 C325.29691991 0.82164623 331.94776892 0.84252171 338.59861431 0.86765557 C341.97124352 0.88030697 345.34384572 0.89094784 348.71649265 0.89840627 C374.62853855 0.95750105 374.62853855 0.95750105 385.95608616 2.09498715 C380.45525542 63.71631627 374.94140503 125.33643757 369.3846724 186.95275235 C368.24371729 199.6044672 367.10319226 212.25622084 365.96267796 224.90797544 C365.89910317 225.61320869 365.83552838 226.31844195 365.77002709 227.04504591 C354.71731664 349.61381597 354.71731664 349.61381597 340.64358616 508.71998715 C340.55845862 509.69254736 340.47333109 510.66510756 340.38562393 511.66713929 C336.71877158 553.5604885 333.08640529 595.4566976 329.51009107 637.35787606 C329.29012794 639.93471532 329.07005751 642.51154539 328.84995174 645.08837247 C327.55965317 660.19478801 326.2694796 675.30120762 324.99531645 690.40899402 C324.46795307 696.66131368 323.93742812 702.91336103 323.40581417 709.16532063 C323.19155099 711.69377117 322.97862282 714.22233524 322.76711559 716.75101781 C322.48182152 720.16145286 322.19214822 723.57148818 321.90139866 726.98146176 C321.81944594 727.97552848 321.73749323 728.96959519 321.6530571 729.99378514 C321.5753272 730.89499782 321.49759729 731.79621049 321.41751194 732.72473264 C321.35202152 733.50240459 321.28653111 734.28007655 321.21905613 735.08131433 C320.95608616 737.09498715 320.95608616 737.09498715 319.95608616 740.09498715 C317.08572782 741.17769875 314.31630402 742.04996258 311.36624241 742.86061215 C310.43866627 743.12614896 309.51109013 743.39168576 308.55540562 743.66526914 C305.37979686 744.57071364 302.1993036 745.45766854 299.01858616 746.34498715 C296.71508103 746.99747382 294.41186727 747.65098983 292.10891819 748.30543637 C285.52889725 750.17086885 278.9440216 752.01853327 272.35788059 753.86219907 C267.78516173 755.14235739 263.21356843 756.42650691 258.64212132 757.71119809 C244.99272346 761.54649535 231.34227108 765.37800421 217.68899632 769.19947934 C197.00509391 774.98926102 176.3284237 780.80331938 155.66675758 786.67199731 C151.16880418 787.94953807 146.67023125 789.22486264 142.17107201 790.49815011 C126.59804377 794.90604024 111.03729151 799.35219705 95.49824619 803.87858701 C88.97916494 805.77703029 82.45623931 807.66211003 75.93242455 809.54421544 C70.5732498 811.09160366 65.21950012 812.6561599 59.86925983 814.23414445 C56.54553102 815.20983597 53.21709387 816.16862849 49.8872118 817.12308431 C48.35315987 817.56645524 46.82105196 818.01662453 45.2912569 818.47446752 C26.13522151 824.19819716 11.76095027 821.5314928 -7.04391384 816.09498715 C-9.16100935 815.49893778 -11.27862163 814.90472107 -13.39672756 814.31227231 C-20.30922574 812.37158951 -27.20980547 810.39027792 -34.11032009 808.40748715 C-36.68987352 807.6685536 -39.26949346 806.92985655 -41.84921169 806.19149899 C-47.29118178 804.63353835 -52.73267234 803.07391389 -58.17382717 801.51310849 C-71.68976053 797.63625408 -85.20870486 793.76991435 -98.72752929 789.9031558 C-100.85709396 789.29401136 -102.98663295 788.68477722 -105.11616611 788.07552266 C-128.76728975 781.30925375 -152.42781713 774.57704544 -176.10641384 767.90748715 C-177.25043478 767.58519258 -177.25043478 767.58519258 -178.41756725 767.256387 C-209.60807078 758.47058227 -240.82189674 749.76805827 -272.04391384 741.09498715 C-274.7624374 718.02193644 -276.90869038 694.89844796 -279.06326842 671.76745844 C-279.47862674 667.3121147 -279.89567986 662.85693019 -280.31270701 658.4017424 C-281.67234063 643.87574109 -283.02603645 629.34918917 -284.37848759 614.82251763 C-284.73239123 611.02199105 -285.08650232 607.22148385 -285.44068813 603.42098355 C-295.00302675 500.8144411 -304.48447335 398.20033458 -338.04391384 2.09498715 C-331.0351138 1.3628973 -324.12759433 0.95179287 -317.08222866 0.98146176 C-316.14282895 0.9813129 -315.20342923 0.98116405 -314.23556286 0.98101068 C-311.12014251 0.98169932 -308.0047828 0.98951561 -304.88937283 0.9973309 C-302.6406549 0.99925255 -300.39193655 1.00071518 -298.14321804 1.00175595 C-293.30999802 1.00490953 -288.47679561 1.01116825 -283.64358234 1.01982236 C-275.95663878 1.03343352 -268.26970093 1.03925957 -260.58274746 1.04396176 C-249.7612862 1.05129234 -238.93983247 1.06139089 -228.11837673 1.07447934 C-227.43281982 1.07530715 -226.7472629 1.07613497 -226.04093153 1.07698786 C-219.80927974 1.08454633 -213.57762826 1.09234759 -207.34597683 1.1001904 C-203.23430292 1.10535891 -199.12262893 1.11046109 -195.01095486 1.11549497 C-194.33564779 1.11632309 -193.66034072 1.11715122 -192.9645698 1.11800444 C-181.56671548 1.1318542 -170.16886221 1.14148538 -158.7710014 1.14840531 C-152.40379225 1.15251222 -146.03660071 1.15869277 -139.66940022 1.17015195 C-116.76004011 1.21097784 -93.86495074 1.23648875 -70.96310329 0.59669614 C-47.30915016 -0.06347226 -23.66169963 -0.03569876 0 0 Z M52.95608616 161.09498715 C52.95608616 264.05498715 52.95608616 367.01498715 52.95608616 473.09498715 C59.41528656 472.50778712 65.45252026 471.94877299 71.77102757 470.83912778 C72.82714127 470.65551804 72.82714127 470.65551804 73.90459061 470.46819901 C76.20638988 470.0668632 78.50700688 469.65915139 80.80764866 469.25123715 C82.45368039 468.96269619 84.09977467 468.67451184 85.74592686 468.38665891 C90.12357949 467.61984539 94.50017827 466.8471759 98.87653065 466.07298017 C101.58457513 465.59437053 104.2929047 465.11740974 107.00134373 464.64103818 C129.1022442 460.75379898 151.19626666 456.82923051 173.26858616 452.78248715 C174.79615543 452.50308286 174.79615543 452.50308286 176.35458469 452.21803403 C179.15587919 451.70459852 181.95652085 451.18778378 184.75686741 450.6692059 C185.55920307 450.52194562 186.36153873 450.37468534 187.1881876 450.22296262 C190.1930524 449.66205146 193.05187616 449.06305716 195.95608616 448.09498715 C195.85711788 448.96577657 195.85711788 448.96577657 195.75615025 449.85415769 C195.02439499 456.65898318 194.66678623 463.44064373 194.42092991 470.2785809 C194.37795277 471.4147334 194.33497562 472.5508859 194.29069614 473.72146726 C194.20102149 476.1106481 194.11286459 478.49988634 194.02615452 480.88917661 C193.89409565 484.51848495 193.75651852 488.14755336 193.61819553 491.77662778 C193.53127884 494.11059996 193.44467978 496.44458399 193.35842991 498.7785809 C193.3178194 499.84974652 193.2772089 500.92091214 193.23536777 502.02453732 C192.99566907 508.71790474 192.90807636 515.39749049 192.95608616 522.09498715 C191.02297581 522.44810971 191.02297581 522.44810971 189.05081272 522.80836606 C181.0921342 524.40410635 173.27805823 526.58407204 165.44046116 528.68092465 C163.71719637 529.13947022 161.99385164 529.59771551 160.27043247 530.05568051 C156.62830712 531.02404084 152.98665922 531.99416778 149.3453989 532.96577573 C140.87797972 535.22503271 132.40816236 537.47527099 123.93850231 539.72610974 C121.14622052 540.46824878 118.35403093 541.21073404 115.56184483 541.953233 C100.9741941 545.83115749 86.37694693 549.67073303 71.76858616 553.46998715 C70.81455906 553.71819211 69.86053196 553.96639707 68.87759495 554.22212338 C63.9043994 555.51555661 58.93062537 556.80673156 53.95608616 558.09498715 C53.80043987 566.11127608 53.65231252 574.12765741 53.51312256 582.14424729 C53.4482307 585.86887008 53.38099271 589.59341609 53.3078928 593.31788754 C52.99633027 609.27458364 52.70857127 625.1660823 53.95608616 641.09498715 C59.61577079 640.47296482 65.04571251 639.50061209 70.58108616 638.18092465 C71.86925236 637.87757703 71.86925236 637.87757703 73.18344212 637.56810117 C76.1092399 636.87519968 79.03282446 636.17350829 81.95608616 635.46998715 C83.50410923 635.09916013 83.50410923 635.09916013 85.08340549 634.72084165 C109.20772082 628.92316125 133.20545957 622.63116768 157.20608616 616.34498715 C158.62957371 615.97216233 158.62957371 615.97216233 160.08181858 615.5918057 C170.93253745 612.74892782 181.78063625 609.8962315 192.62537479 607.03062367 C197.32666202 605.78840852 202.0289142 604.54998479 206.73239613 603.31610608 C209.48210017 602.59402955 212.23094118 601.86871112 214.97954655 601.14246488 C216.78968384 600.66514045 218.60079727 600.19152236 220.41195774 599.71809506 C234.84467516 596.64603449 234.84467516 596.64603449 246.95608616 589.09498715 C248.00588257 585.94559791 248.28842807 583.28256381 248.56936741 579.97609067 C248.68072529 578.68463635 248.79208317 577.39318204 248.90681553 576.06259274 C249.02755123 574.61637177 249.14813566 573.17013816 249.26858616 571.7238934 C249.39924444 570.18490829 249.53013608 568.64594298 249.66124058 567.10699582 C250.02212167 562.85510762 250.37749414 558.60277455 250.73154163 554.35031247 C250.95618818 551.65626363 251.18229727 548.96234123 251.40881443 546.26844907 C254.77096227 506.24832912 257.8612169 466.20675241 260.93460178 426.16359067 C261.12247355 423.71891321 261.31035486 421.27423648 261.49824619 418.82956052 C261.84568543 414.30858466 262.19148739 409.78748828 262.53611851 405.26629758 C262.69512316 403.18996755 262.85439337 401.11365784 263.01394749 399.03736997 C263.12823959 397.5499289 263.12823959 397.5499289 263.24484062 396.03243852 C263.88026842 387.86329472 264.58823139 379.70107616 265.34261131 371.54205823 C265.74857861 367.04153423 266.06181341 362.62005501 265.95608616 358.09498715 C236.13333856 360.63574038 206.4269185 364.06425713 176.7120285 367.62431741 C172.66472885 368.1088696 168.61711612 368.59076449 164.56936741 369.07154965 C163.79372252 369.1638819 163.01807762 369.25621415 162.21892834 369.35134435 C151.63031601 370.60727264 141.0437606 371.72125577 130.40879917 372.51896787 C126.04454076 372.73767207 126.04454076 372.73767207 121.95608616 374.09498715 C121.95608616 331.52498715 121.95608616 288.95498715 121.95608616 245.09498715 C172.11608616 245.09498715 222.27608616 245.09498715 273.95608616 245.09498715 C275.57167512 235.60111931 275.57167512 235.60111931 276.73391819 226.10817075 C276.85389164 224.88004666 276.97386509 223.65192258 277.0974741 222.38658261 C277.2183942 221.10184049 277.33931431 219.81709836 277.46389866 218.49342465 C277.59532954 217.12203398 277.72699747 215.75066601 277.85888767 214.37931943 C278.13218631 211.52731154 278.40242148 208.67503484 278.67044163 205.82252622 C279.01171026 202.19343811 279.36108339 198.56518332 279.71280193 194.93709493 C279.9855962 192.11304094 280.25387717 189.28857147 280.52087116 186.46396375 C280.70883793 184.48422616 280.90066139 182.50485593 281.09259129 180.52549863 C281.20626041 179.30367887 281.31992954 178.0818591 281.43704319 176.8230145 C281.53760014 175.76222684 281.63815708 174.70143918 281.74176121 173.60850644 C282.01678344 169.09995098 281.99831808 164.61027096 281.95608616 160.09498715 C258.44734124 160.07140586 234.93859833 160.0538862 211.4298439 160.04317498 C200.50914389 160.03806473 189.58845131 160.03112541 178.66775608 160.0195477 C169.12584436 160.00943674 159.58393803 160.00309567 150.0420211 160.00089866 C145.01098066 159.99961874 139.97995563 159.99671294 134.94892025 159.9892571 C130.16940302 159.9822345 125.38990684 159.98042049 120.61038494 159.98187947 C118.89817151 159.98161443 117.18595701 159.97977056 115.47374821 159.97578168 C94.6235902 159.92978477 73.80730454 160.6100751 52.95608616 161.09498715 Z " fill="#D5BA32" transform="translate(448.04391384124756,200.90501284599304)"/>
<path d="M0 0 C0.88664697 0.00037972 1.77329394 0.00075944 2.686809 0.00115067 C3.70595156 -0.00084038 4.72509412 -0.00283143 5.77511978 -0.00488281 C6.90836384 -0.00196997 8.0416079 0.00094287 9.20919269 0.00394398 C10.40244441 0.00308955 11.59569612 0.00223513 12.82510698 0.00135481 C16.15212888 -0.00001339 19.47909267 0.00313413 22.80610758 0.00813287 C26.38826391 0.01243403 29.9704183 0.01099119 33.55257648 0.0102306 C39.76386485 0.00970515 45.97514275 0.01285413 52.18642849 0.01846844 C61.16700733 0.02658062 70.1475811 0.02919837 79.12816321 0.03045643 C93.69704094 0.03264739 108.26591309 0.03930868 122.83478779 0.04875904 C136.99071198 0.05793201 151.14663466 0.06501341 165.30256122 0.06926686 C166.17450121 0.06952958 167.04644119 0.0697923 167.9448036 0.07006299 C172.31888177 0.07136798 176.69295994 0.0726317 181.06703812 0.07387489 C217.37919234 0.08424889 253.69134022 0.10186841 290.00348896 0.1241985 C289.48445024 11.14876364 288.93267187 22.15854382 288.02643818 33.15935475 C287.93298398 34.32383798 287.83952978 35.48832121 287.74324363 36.68809181 C287.43468148 40.52122082 287.12157397 44.35396203 286.80817646 48.1866985 C286.63975254 50.2625626 286.47176139 52.33846145 286.30379999 54.41436303 C285.56724594 63.51569173 284.82240078 72.61633403 284.07587427 81.71684939 C283.87743776 84.13701907 283.67928646 86.55721193 283.4812302 88.97741276 C276.20760148 177.85420581 268.54056464 266.69764372 252.06598896 448.5616985 C251.96607324 449.65533695 251.86615752 450.7489754 251.76321405 451.87575442 C246.27301634 511.96771492 240.69121275 572.05060904 235.00348896 632.1241985 C210.57478412 639.5940112 210.57478412 639.5940112 198.36286396 643.10466725 C196.62321117 643.60679737 196.62321117 643.60679737 194.84841388 644.11907154 C191.15072378 645.18544145 187.45221148 646.24891548 183.75348896 647.3116985 C182.45301421 647.68574204 181.15254842 648.05981673 179.85209125 648.4339214 C156.60311938 655.12037955 133.33234718 661.72158618 110.00348896 668.1241985 C109.04233173 668.38849659 108.0811745 668.65279469 107.0908913 668.92510182 C79.74630392 676.44186065 52.33056054 683.63381971 24.81598896 690.4991985 C24.14219826 690.66738213 23.46840755 690.83556576 22.77419895 691.00884587 C18.31634275 692.12112607 13.85750648 693.22940566 9.39802021 694.335136 C8.25589069 694.61877506 7.11376117 694.90241413 5.93702167 695.19464833 C4.90168293 695.45032078 3.86634418 695.70599324 2.79963154 695.96941334 C1.4393861 696.30578312 1.4393861 696.30578312 0.05166095 696.64894825 C-1.99651104 697.1241985 -1.99651104 697.1241985 -2.99651104 697.1241985 C-4.06106821 666.07285808 -4.14274114 635.03276831 -4.12817867 603.96621061 C-4.12490958 596.5345623 -4.12762087 589.10291861 -4.13038308 581.67127052 C-4.13560242 567.11812319 -4.13521119 552.56498029 -4.13230416 538.01183255 C-4.12977303 525.27555044 -4.12913909 512.53926994 -4.13032681 499.80298764 C-4.13044139 498.52805803 -4.13044139 498.52805803 -4.13055828 497.22737227 C-4.13086969 493.7758003 -4.1311881 490.32422833 -4.13151804 486.87265637 C-4.13456627 454.59798875 -4.13182071 422.32332394 -4.12642114 390.04865675 C-4.12167631 361.47040159 -4.12210178 332.89215089 -4.12688214 304.31389576 C-4.13225434 272.09086897 -4.13435039 239.86784465 -4.13126987 207.64481747 C-4.13094923 204.20040951 -4.13063638 200.75600155 -4.13032681 197.31159359 C-4.13020819 196.03975175 -4.13020819 196.03975175 -4.13008718 194.74221614 C-4.12895698 182.02353397 -4.13026628 169.30485361 -4.13280636 156.58617169 C-4.13568465 142.10315769 -4.13491068 127.62014876 -4.12952562 113.13713538 C-4.12687426 105.76625905 -4.12572459 98.39539097 -4.12917477 91.02451473 C-4.15144802 40.03872597 -4.15144802 40.03872597 -3.55092388 16.40436512 C-3.53150479 15.60001018 -3.51208569 14.79565524 -3.49207814 13.96692591 C-3.43713075 11.77997718 -3.37470855 9.59342158 -3.30836827 7.40679222 C-3.25461704 5.60442536 -3.25461704 5.60442536 -3.19977993 3.76564705 C-2.92399746 0.18189536 -2.92399746 0.18189536 0 0 Z M25.00348896 95.1241985 C25.00348896 198.0841985 25.00348896 301.0441985 25.00348896 407.1241985 C31.46268936 406.53699846 37.49992306 405.97798433 43.81843036 404.86833912 C44.87454407 404.68472938 44.87454407 404.68472938 45.95199341 404.49741036 C48.25379268 404.09607454 50.55440968 403.68836273 52.85505146 403.2804485 C54.50108319 402.99190753 56.14717747 402.70372319 57.79332966 402.41587025 C62.17098229 401.64905673 66.54758107 400.87638724 70.92393345 400.10219151 C73.63197793 399.62358187 76.3403075 399.14662108 79.04874653 398.67024952 C101.149647 394.78301032 123.24366946 390.85844185 145.31598896 386.8116985 C146.84355823 386.5322942 146.84355823 386.5322942 148.40198749 386.24724537 C151.20328199 385.73380986 154.00392365 385.21699512 156.80427021 384.69841725 C157.60660587 384.55115696 158.40894153 384.40389668 159.2355904 384.25217396 C162.2404552 383.69126281 165.09927895 383.0922685 168.00348896 382.1241985 C167.90452068 382.99498791 167.90452068 382.99498791 167.80355304 383.88336903 C167.07179779 390.68819452 166.71418903 397.46985508 166.46833271 404.30779225 C166.42535557 405.44394474 166.38237842 406.58009724 166.33809894 407.7506786 C166.24842429 410.13985944 166.16026739 412.52909768 166.07355732 414.91838795 C165.94149845 418.54769629 165.80392132 422.1767647 165.66559833 425.80583912 C165.57868164 428.1398113 165.49208258 430.47379533 165.40583271 432.80779225 C165.3652222 433.87895787 165.3246117 434.95012348 165.28277057 436.05374867 C165.04307187 442.74711609 164.95547916 449.42670183 165.00348896 456.1241985 C163.07037861 456.47732105 163.07037861 456.47732105 161.09821552 456.8375774 C153.139537 458.43331769 145.32546103 460.61328338 137.48786396 462.710136 C135.76459916 463.16868157 134.04125444 463.62692685 132.31783527 464.08489186 C128.67570992 465.05325218 125.03406202 466.02337913 121.3928017 466.99498707 C112.92538252 469.25424405 104.45556515 471.50448234 95.98590511 473.75532109 C93.19362331 474.49746012 90.40143373 475.23994538 87.60924762 475.98244435 C73.02159689 479.86036883 58.42434973 483.69994437 43.81598896 487.4991985 C42.86196186 487.74740345 41.90793476 487.99560841 40.92499775 488.25133473 C35.9518022 489.54476796 30.97802817 490.8359429 26.00348896 492.1241985 C25.84784266 500.14048742 25.69971532 508.15686875 25.56052536 516.17345864 C25.4956335 519.89808143 25.42839551 523.62262743 25.3552956 527.34709889 C25.04373307 543.30379498 24.75597407 559.19529364 26.00348896 575.1241985 C31.66317359 574.50217616 37.0931153 573.52982343 42.62848896 572.210136 C43.91665516 571.90678837 43.91665516 571.90678837 45.23084491 571.59731251 C48.1566427 570.90441102 51.08022726 570.20271964 54.00348896 569.4991985 C55.55151203 569.12837147 55.55151203 569.12837147 57.13080829 568.75005299 C81.25512362 562.95237259 105.25286237 556.66037903 129.25348896 550.3741985 C130.67697651 550.00137367 130.67697651 550.00137367 132.12922138 549.62101704 C142.97994025 546.77813916 153.82803904 543.92544284 164.67277759 541.05983502 C169.37406481 539.81761987 174.076317 538.57919614 178.77979892 537.34531742 C181.52950297 536.62324089 184.27834398 535.89792246 187.02694935 535.17167622 C188.83708664 534.6943518 190.64820007 534.2207337 192.45936054 533.74730641 C206.89207796 530.67524583 206.89207796 530.67524583 219.00348896 523.1241985 C220.05328537 519.97480925 220.33583087 517.31177515 220.61677021 514.00530201 C220.72812809 512.7138477 220.83948597 511.42239338 220.95421833 510.09180409 C221.07495403 508.64558311 221.19553846 507.1993495 221.31598896 505.75310475 C221.44664724 504.21411964 221.57753887 502.67515432 221.70864338 501.13620716 C222.06952447 496.88431896 222.42489694 492.63198589 222.77894443 488.37952381 C223.00359098 485.68547497 223.22970007 482.99155257 223.45621723 480.29766041 C226.81836507 440.27754047 229.9086197 400.23596375 232.98200458 360.19280201 C233.16987635 357.74812455 233.35775766 355.30344782 233.54564899 352.85877186 C233.89308823 348.337796 234.23889019 343.81669962 234.58352131 339.29550892 C234.74252596 337.21917889 234.90179617 335.14286918 235.06135029 333.06658131 C235.17564239 331.57914024 235.17564239 331.57914024 235.29224342 330.06164986 C235.92767122 321.89250606 236.63563419 313.7302875 237.39001411 305.57126957 C237.79598141 301.07074557 238.10921621 296.64926636 238.00348896 292.1241985 C208.18074136 294.66495172 178.4743213 298.09346848 148.7594313 301.65352875 C144.71213165 302.13808094 140.66451892 302.61997583 136.61677021 303.100761 C135.84112531 303.19309325 135.06548042 303.28542549 134.26633114 303.38055569 C123.67771881 304.63648398 113.0911634 305.75046712 102.45620197 306.54817921 C98.09194356 306.76688341 98.09194356 306.76688341 94.00348896 308.1241985 C94.00348896 265.5541985 94.00348896 222.9841985 94.00348896 179.1241985 C144.16348896 179.1241985 194.32348896 179.1241985 246.00348896 179.1241985 C247.61907791 169.63033065 247.61907791 169.63033065 248.78132099 160.13738209 C248.90129444 158.90925801 249.02126789 157.68113392 249.1448769 156.41579396 C249.265797 155.13105183 249.38671711 153.8463097 249.51130146 152.522636 C249.64273234 151.15124532 249.77440027 149.77987735 249.90629047 148.40853077 C250.17958911 145.55652288 250.44982428 142.70424618 250.71784443 139.85173756 C251.05911305 136.22264946 251.40848619 132.59439467 251.76020473 128.96630627 C252.032999 126.14225228 252.30127997 123.31778281 252.56827396 120.49317509 C252.75624073 118.5134375 252.94806419 116.53406728 253.13999408 114.55470997 C253.25366321 113.33289021 253.36733234 112.11107044 253.48444599 110.85222584 C253.58500293 109.79143818 253.68555988 108.73065052 253.78916401 107.63771778 C254.06418624 103.12916232 254.04572088 98.6394823 254.00348896 94.1241985 C230.49474404 94.1006172 206.98600113 94.08309754 183.4772467 94.07238632 C172.55654669 94.06727607 161.63585411 94.06033675 150.71515888 94.04875904 C141.17324716 94.03864808 131.63134083 94.03230701 122.08942389 94.03011 C117.05838346 94.02883008 112.02735843 94.02592428 106.99632305 94.01846844 C102.21680582 94.01144585 97.43730964 94.00963184 92.65778774 94.01109082 C90.94557431 94.01082577 89.23335981 94.0089819 87.52115101 94.00499302 C66.670993 93.95899612 45.85470734 94.63928644 25.00348896 95.1241985 Z " fill="#FED93D" transform="translate(475.9965110421181,266.8758015036583)"/>
<path d="M0 0 C1.59501091 0.02545395 1.59501091 0.02545395 3.22224426 0.05142212 C5.02498055 0.07672501 5.02498055 0.07672501 6.86413574 0.10253906 C8.82961113 0.13838608 8.82961113 0.13838608 10.83479309 0.17495728 C12.18662014 0.19672523 13.53845235 0.21817483 14.89028931 0.23931885 C17.73098748 0.28490486 20.57159371 0.33412125 23.41218567 0.38589478 C27.04240837 0.45180862 30.67270411 0.5092254 34.30311108 0.56392479 C37.09909998 0.60693764 39.89500182 0.65432494 42.69089699 0.703022 C44.67715272 0.73690055 46.66346709 0.7672832 48.64978027 0.79760742 C50.47615776 0.83236679 50.47615776 0.83236679 52.33943176 0.86782837 C53.40675034 0.88638885 54.47406891 0.90494934 55.57373047 0.92407227 C58.64734571 1.09136132 61.58037416 1.52540005 64.60432434 2.08901978 C65.82571796 5.75320063 65.73301689 9.10939921 65.7117548 12.92326641 C65.71122027 13.73377057 65.71068574 14.54427472 65.71013501 15.37933961 C65.70708626 18.11842754 65.69680848 20.85744184 65.68661499 23.59651184 C65.68292324 25.57075482 65.67967345 27.54499867 65.67682976 29.51924306 C65.66770105 34.9624342 65.65226791 40.40559237 65.63584697 45.84876573 C65.61924955 51.71174587 65.60843966 57.57473693 65.59693909 63.43772888 C65.57620389 73.60178254 65.55177387 83.76582198 65.52485847 93.92986107 C65.49662759 104.59211981 65.47042007 115.25438006 65.44701958 125.91665077 C65.44556449 126.57911831 65.4441094 127.24158586 65.44261022 127.92412817 C65.43523167 131.2883427 65.42789029 134.65255731 65.42056321 138.01677195 C65.3685725 161.85751513 65.31191381 185.69824516 65.2525177 209.53897095 C65.1948189 232.70270281 65.13922968 255.86643815 65.08650208 279.03018188 C65.0840637 280.10082811 65.0840637 280.10082811 65.08157607 281.19310354 C65.06525393 288.36088976 65.04897473 295.52867607 65.03272701 302.69646246 C64.99962631 317.29861368 64.96623892 331.90076425 64.93267822 346.50291443 C64.93113544 347.17432626 64.92959266 347.8457381 64.92800314 348.53749575 C64.82491216 393.38801522 64.71511675 438.23851874 64.60432434 483.08901978 C62.86428106 482.77872188 61.12454334 482.46671029 59.38493347 482.1539917 C58.41608404 481.98042711 57.44723461 481.80686253 56.44902611 481.62803841 C52.45026833 480.8703474 48.52060755 479.90981689 44.58088684 478.89370728 C43.7190126 478.67360992 42.85713837 478.45351257 41.96914673 478.22674561 C39.05427265 477.4785585 36.14162222 476.72217018 33.22932434 475.96401978 C31.67581772 475.56134888 31.67581772 475.56134888 30.09092712 475.15054321 C5.10637516 468.6546203 -19.70911977 461.55665647 -44.54060364 454.50341797 C-66.47357 448.27385657 -88.40864415 442.08350698 -110.45817566 436.27651978 C-111.92010849 435.89137207 -111.92010849 435.89137207 -113.41157532 435.4984436 C-123.05656485 432.96310952 -132.71228189 430.47392871 -142.39567566 428.08901978 C-142.71421455 425.73554311 -143.02544581 423.381417 -143.33317566 421.02651978 C-143.42018738 420.38907837 -143.5071991 419.75163696 -143.59684753 419.09487915 C-145.7212725 402.65025628 -145.51664545 386.19847147 -145.45817566 369.65151978 C-145.45315017 367.16649464 -145.44858912 364.68146851 -145.44450378 362.19644165 C-145.43358239 356.16061256 -145.41692763 350.12482087 -145.39567566 344.08901978 C-141.5667589 342.81271419 -139.61664137 343.51874473 -135.68864441 344.43276978 C-134.9974501 344.59275452 -134.3062558 344.75273926 -133.59411621 344.91757202 C-131.2545259 345.46424469 -128.91875596 346.02547274 -126.58317566 346.58901978 C-125.76268738 346.78475586 -124.9421991 346.98049194 -124.09684753 347.18215942 C-102.23382712 352.41548444 -80.60656386 358.5393547 -58.97900391 364.66073608 C-48.14015849 367.72780452 -37.30004709 370.79039437 -26.46012878 373.85366821 C-24.31219941 374.46067124 -22.16427053 375.06767603 -20.01634216 375.67468262 C-14.80945906 377.14614863 -9.60256984 378.61759299 -4.39567566 380.08901978 C-4.39605538 379.40935608 -4.3964351 378.72969239 -4.39682633 378.02943283 C-4.41933323 337.50998053 -4.43642661 296.99052904 -4.44674099 256.47107172 C-4.4479913 251.57720088 -4.44928566 246.68333005 -4.4506073 241.78945923 C-4.45100077 240.32838473 -4.45100077 240.32838473 -4.45140218 238.83779358 C-4.45572236 223.18310111 -4.46358923 207.5284124 -4.47282846 191.87372214 C-4.48226761 175.74255874 -4.48775267 159.61139728 -4.48976415 143.48023123 C-4.49099861 134.44829962 -4.49392924 125.41637587 -4.50140572 116.3844471 C-4.55358737 51.3001392 -4.55358737 51.3001392 -3.95207214 20.84072876 C-3.93260029 19.80118424 -3.91312844 18.76163971 -3.89306653 17.69059384 C-3.83791673 14.85999605 -3.77524656 12.02970499 -3.70864868 9.19935608 C-3.69224126 8.37748224 -3.67583384 7.55560839 -3.65892923 6.70882928 C-3.48341497 0.12943856 -3.48341497 0.12943856 0 0 Z " fill="#EAEAEA" transform="translate(376.3956756591797,359.9109802246094)"/>
<path d="M0 0 C0.19219715 9.69527822 -0.40418676 19.32867432 -1 29 C-5.51534663 27.49889276 -10.02874468 25.99259115 -14.53515625 24.46484375 C-15.28216797 24.21283203 -16.02917969 23.96082031 -16.79882812 23.70117188 C-18.31263475 23.19047439 -19.82565426 22.67743799 -21.33789062 22.16210938 C-32.18571418 18.51491546 -45.561464 14.71050641 -56.6875 19.5 C-61.94512191 22.78456291 -64.6086109 28.20677705 -66.3125 34 C-66.539375 34.99 -66.76625 35.98 -67 37 C-66.03731201 37.15239136 -66.03731201 37.15239136 -65.05517578 37.30786133 C-57.48938547 38.58503589 -50.22171041 40.48951952 -42.875 42.6875 C-41.69446045 43.04054199 -40.5139209 43.39358398 -39.29760742 43.75732422 C-6.84361653 53.65553656 -6.84361653 53.65553656 -0.03125 65.73828125 C5.31409078 77.46158547 5.23716526 88.94160113 1 101 C-4.72746526 113.16652469 -13.46348646 120.37993024 -26 125 C-34.18956074 127.59071176 -41.93248562 128.54741576 -50.5 128.5 C-52.21932739 128.49685791 -52.21932739 128.49685791 -53.97338867 128.49365234 C-69.02617923 128.22625583 -84.7431982 125.96542269 -99 121 C-101.48505637 109.76437281 -103.20756447 98.51982823 -103 87 C-102.34104736 87.28198242 -101.68209473 87.56396484 -101.00317383 87.85449219 C-72.74881576 101.02732941 -72.74881576 101.02732941 -42.31640625 101.28125 C-34.23513229 97.49267544 -31.87421508 90.87351473 -29 83 C-29.84175781 82.8040625 -30.68351562 82.608125 -31.55078125 82.40625 C-84.14507772 69.7355576 -84.14507772 69.7355576 -96 55 C-97.48170566 52.05634476 -98.35216331 49.2218307 -99 46 C-99.17917969 45.22011719 -99.35835938 44.44023438 -99.54296875 43.63671875 C-101.46030257 32.57517748 -100.50511145 20.67354684 -94.1171875 11.2109375 C-71.44999568 -15.6809639 -29.72639053 -12.02455418 0 0 Z " fill="#131313" transform="translate(519,12)"/>
<path d="M0 0 C1.16015625 0.59167969 1.16015625 0.59167969 2.34375 1.1953125 C11.62076333 6.60690361 16.99862556 15.89486996 20 26 C24.78533976 45.63356541 22.17104624 66.95601427 12 84.4375 C3.9455132 94.75731122 -5.69200037 99.01489898 -18.5 100.6875 C-27.47198584 101.46975499 -36.00618289 100.81761974 -45 100 C-44.67 111.55 -44.34 123.1 -44 135 C-54.89 135 -65.78 135 -77 135 C-77 90.12 -77 45.24 -77 -1 C-74.26798405 -2.36600798 -72.85516111 -1.69435488 -69.875 -1.08203125 C-62.25289273 0.26591889 -54.71149927 0.34484421 -47 0.3125 C-45.91632645 0.31375381 -45.91632645 0.31375381 -44.8107605 0.31503296 C-35.93263121 0.3156461 -27.31917087 -0.0888357 -18.5625 -1.6875 C-11.63930928 -2.94549355 -6.34238527 -3.43151442 0 0 Z M-44 23 C-44 41.48 -44 59.96 -44 79 C-27.22235025 77.36327694 -27.22235025 77.36327694 -14 69 C-12.16789742 63.314375 -11.67919791 58.13111612 -11.75 52.1875 C-11.75688843 50.97537842 -11.75688843 50.97537842 -11.76391602 49.73876953 C-11.1611117 35.00317221 -11.1611117 35.00317221 -15 22 C-24.67241209 22 -34.33597319 22.59733222 -44 23 Z " fill="#141413" transform="translate(841,39)"/>
<path d="M0 0 C3.90312973 3.70424414 5.24105281 6.37688097 5.96484375 11.74609375 C6.11179687 12.77734375 6.25875 13.80859375 6.41015625 14.87109375 C7.65741845 26.11913102 8.00052689 37.19216377 7.96484375 48.49609375 C7.9635144 49.707173 7.9635144 49.707173 7.9621582 50.94271851 C7.94464141 64.56489197 7.59333915 78.14281071 6.83984375 91.74609375 C0.57975381 91.39764345 -5.56870683 90.87084833 -11.7578125 89.87109375 C-26.33162832 87.43558334 -26.33162832 87.43558334 -40.16015625 91.74609375 C-50.74332779 94.59198862 -62.99470991 93.58958474 -72.62890625 88.421875 C-79.51123111 84.16511238 -82.85678411 79.51878985 -85.16015625 71.74609375 C-86.71184335 61.88537247 -86.8394829 52.7324715 -81.59765625 43.99609375 C-71.09789812 29.65988554 -51.43096795 27.48087707 -35.16015625 24.74609375 C-33.82156917 24.51588891 -32.48302231 24.28544996 -31.14453125 24.0546875 C-28.48505308 23.60408871 -25.82471959 23.16536252 -23.16015625 22.74609375 C-26.84025909 16.98593278 -32.12980027 14.73908001 -38.5859375 13.1484375 C-47.41063661 11.76915979 -56.31836856 12.89305613 -65.10424805 14.0300293 C-70.18443444 14.67575156 -75.04824424 14.93198146 -80.16015625 14.74609375 C-79.56547609 9.0778132 -78.06772824 4.14287221 -76.09765625 -1.19140625 C-75.81599609 -1.97064453 -75.53433594 -2.74988281 -75.24414062 -3.55273438 C-74.55547919 -5.4553075 -73.85865722 -7.3549235 -73.16015625 -9.25390625 C-20.80235179 -16.77359092 -20.80235179 -16.77359092 0 0 Z M-38.16015625 45.62109375 C-39.29195313 45.79511719 -40.42375 45.96914062 -41.58984375 46.1484375 C-42.66492188 46.32246094 -43.74 46.49648437 -44.84765625 46.67578125 C-45.84152344 46.83288574 -46.83539063 46.98999023 -47.859375 47.15185547 C-48.61863281 47.3479541 -49.37789063 47.54405273 -50.16015625 47.74609375 C-51.31028818 50.04635761 -51.45248024 51.75857311 -51.6953125 54.31640625 C-51.77402588 55.12352051 -51.85273926 55.93063477 -51.93383789 56.76220703 C-52.02914795 57.78813965 -52.12445801 58.81407227 -52.22265625 59.87109375 C-52.53203125 63.12984375 -52.84140625 66.38859375 -53.16015625 69.74609375 C-44.58015625 69.74609375 -36.00015625 69.74609375 -27.16015625 69.74609375 C-25.8712254 60.96525235 -24.82733907 52.63970841 -25.16015625 43.74609375 C-29.45035164 43.74609375 -33.93414533 44.94242913 -38.16015625 45.62109375 Z " fill="#131313" transform="translate(393.16015625,47.25390625)"/>
<path d="M0 0 C10.69954798 10.14506085 9.7056252 25.55716617 10.09619141 39.41235352 C10.13364675 42.83801954 10.13833475 46.26166032 10.125 49.6875 C10.12306641 50.91686279 10.12113281 52.14622559 10.11914062 53.4128418 C10.06004688 66.28625013 9.58485366 79.14099675 9 92 C6.56236052 91.85624962 4.1248815 91.71052574 1.6875 91.5625 C0.95490967 91.51810791 0.22231934 91.47371582 -0.5324707 91.42797852 C-4.59494617 91.17438021 -8.6382165 90.85804873 -12.6875 90.4375 C-14.45763846 90.2834614 -16.22851309 90.13766687 -18 90 C-18.92039062 89.92136719 -19.84078125 89.84273438 -20.7890625 89.76171875 C-29.23407862 89.37983818 -36.8559279 91.12590228 -44.95825195 93.30908203 C-52.18974012 95.16337659 -58.66017508 95.59147317 -65.76953125 92.984375 C-73.98142266 88.02269682 -80.56248284 81.63826319 -83.3125 72.1875 C-85.37723485 61.90391769 -84.08972231 51.99086907 -78.75 42.86328125 C-67.05633072 27.54856097 -37.318882 26.29832964 -20 23 C-33.7819503 12.73756853 -47.9179437 13.58702222 -64.3984375 15.52734375 C-68.29863695 15.97227334 -72.07705065 16.08987889 -76 16 C-75.86184471 12.18718055 -75.71319438 8.37484283 -75.5625 4.5625 C-75.52318359 3.47388672 -75.48386719 2.38527344 -75.44335938 1.26367188 C-75.40146484 0.22919922 -75.35957031 -0.80527344 -75.31640625 -1.87109375 C-75.26141968 -3.30859985 -75.26141968 -3.30859985 -75.20532227 -4.77514648 C-75 -7 -75 -7 -74 -8 C-71.52658288 -8.31640503 -69.07267532 -8.57338091 -66.58984375 -8.7890625 C-65.45029991 -8.89037979 -65.45029991 -8.89037979 -64.28773499 -8.9937439 C-62.66624488 -9.13572374 -61.04452469 -9.27509554 -59.42260742 -9.41210938 C-56.99862204 -9.61976388 -54.57665352 -9.8445607 -52.15429688 -10.0703125 C-34.34088348 -11.64388955 -14.356956 -12.48187597 0 0 Z M-37.8125 46.9375 C-38.57498047 47.02451172 -39.33746094 47.11152344 -40.12304688 47.20117188 C-44.18922553 47.62922832 -44.18922553 47.62922832 -48 49 C-48.48383718 51.56254506 -48.84382435 54.03910589 -49.125 56.625 C-49.21136719 57.32496094 -49.29773438 58.02492188 -49.38671875 58.74609375 C-49.90648971 63.19302305 -50.08223526 67.52405229 -50 72 C-46.79138226 71.86004486 -43.58318712 71.71197743 -40.375 71.5625 C-39.47136719 71.52318359 -38.56773437 71.48386719 -37.63671875 71.44335938 C-33.01783854 71.22421542 -28.54846364 70.8991149 -24 70 C-23.66231828 66.93796326 -23.33063107 63.87530542 -23 60.8125 C-22.85691406 59.51602539 -22.85691406 59.51602539 -22.7109375 58.19335938 C-22.27309811 54.11207075 -21.86378087 50.11211498 -22 46 C-27.35137415 45.89368131 -32.50296449 46.28819861 -37.8125 46.9375 Z " fill="#131313" transform="translate(179,46)"/>
<path d="M0 0 C20.79 0 41.58 0 63 0 C64.10553233 41.18107915 64.10553233 41.18107915 64.17724609 60.1149292 C64.18395406 61.67521052 64.19407012 63.23548185 64.20800781 64.79571533 C64.5752251 109.08767668 64.5752251 109.08767668 50.9375 123.5625 C42.8322918 131.40792589 29.72177934 135.34295808 18.61593628 135.33988953 C17.77072418 135.32440567 16.92551208 135.30892181 16.0546875 135.29296875 C15.15879913 135.28872391 14.26291077 135.28447906 13.33987427 135.28010559 C10.51792521 135.26350154 7.69672801 135.22588593 4.875 135.1875 C2.94532292 135.17242946 1.01563448 135.15874524 -0.9140625 135.14648438 C-5.60965847 135.1136583 -10.30470241 135.06200616 -15 135 C-17.29612756 117.14350797 -17.29612756 117.14350797 -17 109 C-16.27522461 108.98541748 -15.55044922 108.97083496 -14.80371094 108.95581055 C-11.45199502 108.88036228 -8.10117254 108.78402834 -4.75 108.6875 C-3.61046875 108.66494141 -2.4709375 108.64238281 -1.296875 108.61914062 C7.57478648 108.3419012 15.58869099 106.80376967 24 104 C34.45477972 80.90655324 28.86275225 49.39908204 27 25 C26.07058594 25.17402344 25.14117187 25.34804688 24.18359375 25.52734375 C19.12795163 26.24957834 14.14180981 25.86455055 9.0625 25.5625 C8.09248047 25.51029297 7.12246094 25.45808594 6.12304688 25.40429688 C3.74829212 25.27561558 1.37406771 25.14070204 -1 25 C-1.0289337 21.20834926 -1.04677601 17.41672673 -1.0625 13.625 C-1.07087891 12.54476563 -1.07925781 11.46453125 -1.08789062 10.3515625 C-1.09272461 8.8046875 -1.09272461 8.8046875 -1.09765625 7.2265625 C-1.10289307 6.27346191 -1.10812988 5.32036133 -1.11352539 4.33837891 C-1 2 -1 2 0 0 Z " fill="#131313" transform="translate(17,5)"/>
<path d="M0 0 C3.6898707 0.16926012 7.33262959 0.56159293 11 1 C12.18964355 1.13801025 12.18964355 1.13801025 13.40332031 1.27880859 C16.07055735 1.61333832 18.71980711 2.01856315 21.375 2.4375 C22.24286133 2.54030273 23.11072266 2.64310547 24.00488281 2.74902344 C26.65693281 3.20662803 28.60756691 3.76128095 31 5 C35.22254435 11.04715084 37.50891557 18.65567591 39.953125 25.56640625 C40.29881531 26.52651108 40.64450562 27.48661591 41.00067139 28.47581482 C42.08961947 31.50265314 43.1703348 34.53233946 44.25 37.5625 C45.34514536 40.6243439 46.44206105 43.68552802 47.54217529 46.74559021 C48.22311725 48.64082784 48.90098572 50.53717307 49.57550049 52.43470764 C49.87961853 53.28326828 50.18373657 54.13182892 50.49707031 55.00610352 C50.89747528 56.13001244 50.89747528 56.13001244 51.30596924 57.27662659 C51.86909686 58.99968614 51.86909686 58.99968614 53 60 C62.21512431 31.06625893 62.21512431 31.06625893 71 2 C81.67641174 1.40921042 92.30448427 0.84730997 103 1 C101.82082345 7.56962122 100.25268916 13.8149615 98.0859375 20.125 C97.79907578 20.97427063 97.51221405 21.82354126 97.21665955 22.69854736 C96.27726806 25.4684382 95.32710972 28.23445705 94.375 31 C94.04930023 31.95177124 93.72360046 32.90354248 93.38803101 33.88415527 C88.28679263 48.77050341 82.91238487 63.54430059 77.3125 78.25 C76.97329529 79.14332031 76.63409058 80.03664063 76.28460693 80.95703125 C75.31658751 83.4996493 74.34163164 86.03946632 73.36328125 88.578125 C72.94066261 89.68477509 72.94066261 89.68477509 72.50950623 90.81378174 C70.60934737 95.70025608 68.40167521 100.33883032 66 105 C62.29790472 104.8610232 58.67956808 104.44245577 55 104 C54.2064209 103.95536621 53.4128418 103.91073242 52.59521484 103.86474609 C45.3477186 103.40594101 37.34067014 102.70179896 32.21582031 97.02294922 C28.2000759 90.6306741 26.04383958 83.38166534 23.74029541 76.24273682 C22.33114122 71.9736816 20.79893998 67.74735215 19.29296875 63.51171875 C0 8.84050595 0 8.84050595 0 0 Z " fill="#131313" transform="translate(200,36)"/>
<path d="M0 0 C9.9 0 19.8 0 30 0 C30.67372208 9.09524806 31 17.84255363 31 27 C40.57 27 50.14 27 60 27 C61.13853318 38.38533178 61.13853318 38.38533178 61.125 44.0625 C61.12886719 45.71958984 61.12886719 45.71958984 61.1328125 47.41015625 C61 50 61 50 60 51 C57.852551 51.01681089 55.70448048 50.96251223 53.55859375 50.87890625 C52.25341797 50.83056641 50.94824219 50.78222656 49.60351562 50.73242188 C48.21483925 50.67589169 46.82616743 50.61924959 45.4375 50.5625 C44.04493979 50.50929453 42.65236174 50.45655404 41.25976562 50.40429688 C37.83964019 50.27411909 34.41977076 50.1391382 31 50 C30.92477731 54.87057269 30.87090243 59.74079337 30.83520508 64.61181641 C30.82029426 66.26226709 30.79995834 67.91267943 30.77368164 69.56298828 C30.60855466 80.2152974 31.31774433 89.63725726 34 100 C34.34457301 101.66437926 34.68205022 103.33033033 35 105 C35.70084717 105.05534912 36.40169434 105.11069824 37.1237793 105.16772461 C40.31193885 105.42124727 43.49971373 105.67932776 46.6875 105.9375 C47.79029297 106.02451172 48.89308594 106.11152344 50.02929688 106.20117188 C51.09599609 106.28818359 52.16269531 106.37519531 53.26171875 106.46484375 C54.24100342 106.543396 55.22028809 106.62194824 56.22924805 106.70288086 C58.86845661 106.98589406 61.40794993 107.43525166 64 108 C63.70728424 114.32266037 62.76111069 119.77229269 59 125 C51.01210419 131.35771299 41.74707482 130.87268668 32 130 C22.19389035 128.41920537 12.10631816 126.01627864 3 122 C1.87236504 118.61709512 1.70688696 115.74662135 1.5 112.18359375 C1.46025558 111.50358307 1.42051117 110.82357239 1.37956238 110.12295532 C1.29469071 108.65825302 1.21164057 107.19344426 1.13021851 105.72854614 C0.99892258 103.41854396 0.85466046 101.10962659 0.70825195 98.80053711 C0.27424702 91.72701808 -0.06447672 84.72336993 0.10546875 77.6328125 C0.37260605 62.39157635 -2.5788754 53.34003997 -12.59545898 41.67211914 C-14 40 -14 40 -16 37 C-14.25311063 35.22600373 -12.50266549 33.45577447 -10.75 31.6875 C-10.25886719 31.18798828 -9.76773438 30.68847656 -9.26171875 30.17382812 C-5.30490417 26.19063479 -5.30490417 26.19063479 -2.86328125 24.6640625 C-0.77822797 23.12754195 -0.77822797 23.12754195 -0.45410156 20.5480957 C-0.42268066 19.12630005 -0.42268066 19.12630005 -0.390625 17.67578125 C-0.36000977 16.74934814 -0.32939453 15.82291504 -0.29785156 14.8684082 C-0.28206055 13.6949585 -0.26626953 12.52150879 -0.25 11.3125 C-0.1675 7.579375 -0.085 3.84625 0 0 Z " fill="#131313" transform="translate(881,10)"/>
<path d="M0 0 C0.84691406 0.31582031 1.69382812 0.63164063 2.56640625 0.95703125 C5.98249394 2.58868673 7.60138136 3.87789731 8.88671875 7.49609375 C9.48226156 10.67654575 9.78279601 13.7713916 10 17 C10.16048828 18.92779297 10.16048828 18.92779297 10.32421875 20.89453125 C10.58693046 24.26201768 10.81043398 27.6277202 11 31 C4.04447597 29.0939189 -2.66407129 26.68797515 -9.37695312 24.06982422 C-17.59687047 20.90349913 -27.62210468 18.90276292 -36.109375 22.421875 C-41.49444618 26.91685177 -45.09693885 36.19984071 -46 43 C-46.69485298 53.19563129 -46.09230246 63.24782956 -39.49609375 71.52734375 C-35.36696332 75.59178807 -30.88868639 77.22476065 -25.1328125 77.37890625 C-17.8214593 77.27219342 -11.34304799 74.88861109 -4.5 72.5 C-2.01263052 71.64952512 0.47783039 70.80883531 2.96875 69.96875 C4.05607422 69.59169922 5.14339844 69.21464844 6.26367188 68.82617188 C9 68 9 68 12 68 C11.3659262 72.00585449 10.69166867 76.00369211 10 80 C9.8875293 80.65742187 9.77505859 81.31484375 9.65917969 81.9921875 C9.30694312 84.01827551 8.93690756 86.04040299 8.5625 88.0625 C8.33691406 89.31160156 8.11132812 90.56070313 7.87890625 91.84765625 C6.99402836 95.02141827 6.66980327 96.18075352 4 98 C-10.35017898 104.49123073 -30.3405656 104.31857243 -45 99 C-59.33548827 93.33998157 -69.5822373 85.10203826 -76.6953125 71.3359375 C-79.49277561 64.18314261 -80.36569175 57.26975017 -80.3125 49.625 C-80.30621582 48.38109497 -80.30621582 48.38109497 -80.29980469 47.11206055 C-80.18230623 40.71526958 -79.38056343 34.98219172 -77 29 C-76.7215625 28.30003906 -76.443125 27.60007812 -76.15625 26.87890625 C-69.84546094 12.92444596 -58.04381876 4.32696574 -44 -1 C-43.1853125 -1.3196875 -42.370625 -1.639375 -41.53125 -1.96875 C-28.20463006 -6.41095665 -12.8996517 -5.10222755 0 0 Z " fill="#131313" transform="translate(609,39)"/>
<path d="M0 0 C2.45844502 0.56201616 4.91676575 1.12456366 7.375 1.6875 C8.19726074 1.87546143 9.01952148 2.06342285 9.86669922 2.25708008 C13.89468254 3.20047854 17.86584165 4.2319 21.8203125 5.44921875 C22.9952124 5.80463745 22.9952124 5.80463745 24.19384766 6.16723633 C25.69138591 6.6268344 27.18379475 7.10362415 28.66943359 7.6003418 C34.34261734 9.32459614 38.39254395 8.74598642 44 7 C45.32572021 6.58935303 45.32572021 6.58935303 46.67822266 6.17041016 C49.48443219 5.26965759 52.27420138 4.32965757 55.0625 3.375 C56.02349609 3.05015625 56.98449219 2.7253125 57.97460938 2.390625 C60.31784644 1.59788808 62.65956176 0.80095424 65 0 C66.14319208 6.61898609 66.3300024 13.23318404 66.5625 19.9375 C66.60568359 21.09830078 66.64886719 22.25910156 66.69335938 23.45507812 C66.79884842 26.30328232 66.90096555 29.15156529 67 32 C59.68341683 33.08834175 52.38723272 33.32457962 45 33.5625 C43.74832031 33.60568359 42.49664063 33.64886719 41.20703125 33.69335938 C38.13811477 33.79878017 35.06912611 33.90090342 32 34 C32.01160156 35.19882813 32.02320313 36.39765625 32.03515625 37.6328125 C32.16977427 59.76064951 31.52853414 81.88028403 31 104 C26.7648504 104.21688524 22.52939029 104.41377195 18.29248047 104.59204102 C16.85082063 104.65553381 15.40939195 104.7245198 13.96826172 104.79907227 C11.89847185 104.90519707 9.82865857 104.99163842 7.7578125 105.07421875 C6.5114502 105.13182373 5.26508789 105.18942871 3.98095703 105.2487793 C2.99724121 105.16668213 2.01352539 105.08458496 1 105 C-1.09827043 101.85259436 -1.26241313 101.0299587 -1.3347168 97.42553711 C-1.35776382 96.49323776 -1.38081085 95.56093842 -1.40455627 94.60038757 C-1.41929489 93.58628311 -1.43403351 92.57217865 -1.44921875 91.52734375 C-1.47140976 90.46872635 -1.49360077 89.41010895 -1.51646423 88.31941223 C-1.58470549 84.85887604 -1.6371283 81.3983394 -1.6875 77.9375 C-1.71744049 76.17617737 -1.71744049 76.17617737 -1.74798584 74.37927246 C-2.16651599 49.51475734 -1.63777125 24.81446958 0 0 Z " fill="#141313" transform="translate(633,35)"/>
<path d="M0 0 C1.25554688 -0.00128906 2.51109375 -0.00257812 3.8046875 -0.00390625 C4.46178711 -0.00181152 5.11888672 0.0002832 5.79589844 0.00244141 C7.80411335 0.00779016 9.81210459 0.00249559 11.8203125 -0.00390625 C13.07585938 -0.00261719 14.33140625 -0.00132813 15.625 0 C16.78644531 0.00112793 17.94789063 0.00225586 19.14453125 0.00341797 C21.8125 0.1328125 21.8125 0.1328125 22.8125 1.1328125 C22.90784958 4.26841136 22.93800879 7.38194863 22.92602539 10.51782227 C22.92617142 11.50307892 22.92631744 12.48833557 22.9264679 13.50344849 C22.92576832 16.77706057 22.91797385 20.05061654 22.91015625 23.32421875 C22.90829223 25.58723418 22.90686825 27.85025001 22.90586853 30.11326599 C22.9020421 36.08260198 22.89221075 42.05191382 22.88116455 48.02124023 C22.87095312 54.10725579 22.86637149 60.19327523 22.86132812 66.27929688 C22.85058859 78.2304811 22.83299078 90.18164101 22.8125 102.1328125 C12.9125 102.1328125 3.0125 102.1328125 -7.1875 102.1328125 C-7.21004879 88.9813192 -7.22841379 75.82983864 -7.23931217 62.67833042 C-7.24454156 56.57224881 -7.2516402 50.46618106 -7.26293945 44.36010742 C-7.27376637 38.47276103 -7.27977642 32.58542801 -7.28237724 26.69807243 C-7.28423185 24.44648973 -7.28785313 22.19490781 -7.29323006 19.94333076 C-7.30043789 16.80147823 -7.30149105 13.65968167 -7.30102539 10.51782227 C-7.30462067 9.57699295 -7.30821594 8.63616364 -7.31192017 7.66682434 C-7.30000551 0.28916565 -7.29827029 0.00708767 0 0 Z " fill="#131313" transform="translate(718.1875,36.8671875)"/>
<path d="M0 0 C1.47583955 0.0001591 2.95168467 0.00585225 4.42749023 0.01586914 C5.20293686 0.01728409 5.97838348 0.01869904 6.77732849 0.02015686 C9.26361893 0.02577194 11.74982059 0.03832693 14.23608398 0.05102539 C15.91772331 0.05603845 17.59936405 0.06060169 19.28100586 0.06469727 C23.41192728 0.07489707 27.5426558 0.09446934 31.67358398 0.11352539 C31.67358398 8.69352539 31.67358398 17.27352539 31.67358398 26.11352539 C26.70729964 26.13643495 21.74119736 26.15636182 16.77490234 26.16845703 C15.08414083 26.17349729 13.39338369 26.18032944 11.70263672 26.18896484 C9.27757692 26.20104396 6.85257454 26.20675662 4.42749023 26.21118164 C3.28685875 26.21892357 3.28685875 26.21892357 2.1231842 26.2268219 C0.30625828 26.22701777 -1.51054729 26.17549816 -3.32641602 26.11352539 C-5.04209394 24.39784747 -4.45657427 22.13979804 -4.45922852 19.80102539 C-4.46051758 18.72594727 -4.46180664 17.65086914 -4.46313477 16.54321289 C-4.45733398 14.84551758 -4.45733398 14.84551758 -4.45141602 13.11352539 C-4.4552832 11.98172852 -4.45915039 10.84993164 -4.46313477 9.68383789 C-4.4618457 8.60875977 -4.46055664 7.53368164 -4.45922852 6.42602539 C-4.45810059 5.4321582 -4.45697266 4.43829102 -4.45581055 3.41430664 C-4.24960772 -0.25221312 -3.78986787 0.12934228 0 0 Z " fill="#151411" transform="translate(712.326416015625,-0.113525390625)"/>
</svg>
