<?xml version="1.0" encoding="UTF-8"?>
<svg version="1.1" xmlns="http://www.w3.org/2000/svg" width="229" height="308">
<path d="M0 0 C0.79824188 -0.00067474 1.59648376 -0.00134949 2.41891479 -0.00204468 C28.55269958 0.03295432 58.40609794 2.48614359 79.75 19.25 C86.68578449 26.54146575 86.08603811 34.05911389 86.0625 43.625 C86.07861328 44.92695312 86.09472656 46.22890625 86.11132812 47.5703125 C86.11536464 55.481882 86.06099679 61.17217063 80.9453125 67.47265625 C70.27283823 76.95706263 53.25364102 84.25 38.75 84.25 C39.41 88.54 40.07 92.83 40.75 97.25 C62.71738323 92.07778336 62.71738323 92.07778336 80.75 79.25 C82.67913345 76.06689154 82.67913345 76.06689154 83.75 73.25 C84.41 73.58 85.07 73.91 85.75 74.25 C85.84931654 80.22732771 85.92167995 86.2041688 85.96972656 92.18212891 C85.98976836 94.21313857 86.01700947 96.24409106 86.05175781 98.27490234 C86.10060414 101.20424556 86.12304343 104.132822 86.140625 107.0625 C86.17159271 108.41142334 86.17159271 108.41142334 86.20318604 109.78759766 C86.20581383 117.27015048 84.26192661 122.94333031 78.9375 128.3125 C67.17049628 137.46737816 50.57530667 142.31407936 35.92578125 143.80078125 C26.31765283 144.81561251 21.06575484 146.35713844 14.83203125 154.04711914 C13.77763092 155.42783086 12.76036917 156.83674877 11.75 158.25 C11.42 158.58 11.09 158.91 10.75 159.25 C32.48770409 160.59614223 60.6223944 155.14863078 77.75 141.25 C80.47370725 138.49958974 82.60282031 135.47076953 84.75 132.25 C86.46456952 135.67913903 85.93502843 139.61223208 85.953125 143.38671875 C85.95882507 144.29952103 85.96452515 145.2123233 85.97039795 146.15278625 C85.9798562 148.08874348 85.9863852 150.02471686 85.99023438 151.96069336 C85.99990431 154.90833125 86.03090494 157.85526129 86.0625 160.80273438 C86.0690337 162.6848917 86.07428273 164.56705401 86.078125 166.44921875 C86.0904718 167.32551437 86.1028186 168.20181 86.11553955 169.10466003 C86.09239567 175.5354359 85.10902677 180.34461855 80.9453125 185.47265625 C60.83554493 203.34378932 29.26243971 205.81685532 3.54101562 205.64111328 C0.7508053 205.62500465 -2.0379574 205.64109239 -4.828125 205.66015625 C-29.21421688 205.6882519 -61.83463627 203.01974998 -80.25 185.25 C-84.50154053 179.29999569 -84.79375154 174.69894873 -84.640625 167.50390625 C-84.63496521 166.49279282 -84.62930542 165.48167938 -84.62347412 164.43992615 C-84.60119521 161.23028977 -84.55101377 158.02179541 -84.5 154.8125 C-84.47992407 152.6282714 -84.46167522 150.4440252 -84.4453125 148.25976562 C-84.40135848 142.92279155 -84.3345318 137.58647739 -84.25 132.25 C-82.55415748 134.49350837 -80.90856808 136.74562698 -79.3125 139.0625 C-66.58370985 154.0197727 -39.78975328 157.32947171 -21.25 159.25 C-19.08412312 159.31209509 -16.91662694 159.33712076 -14.75 159.3125 C-13.7084375 159.30347656 -12.666875 159.29445312 -11.59375 159.28515625 C-10.8203125 159.27355469 -10.046875 159.26195312 -9.25 159.25 C-12.58736697 153.47635514 -16.27523741 147.66863539 -22.80419922 145.33837891 C-28.85467873 143.98229119 -35.02067723 143.40560283 -41.17285156 142.69091797 C-55.8312741 140.59054419 -72.82060053 135.29104073 -82.25 123.25 C-84.02862907 120.23231399 -84.4962221 118.06242278 -84.47705078 114.57324219 C-84.47689972 113.65258972 -84.47674866 112.73193726 -84.47659302 111.78338623 C-84.46627045 110.79783752 -84.45594788 109.81228882 -84.4453125 108.796875 C-84.4424826 107.78151672 -84.43965271 106.76615845 -84.43673706 105.72003174 C-84.42555001 102.47990084 -84.40044791 99.24004724 -84.375 96 C-84.3649683 93.80208733 -84.35584278 91.60417032 -84.34765625 89.40625 C-84.32561551 84.02073886 -84.29215251 78.63538924 -84.25 73.25 C-82.25 74.25 -82.25 74.25 -80.8125 77.375 C-75.78431331 86.42944689 -62.63663718 91.13460239 -53.15966797 93.84863281 C-48.54641926 95.0851737 -43.90712434 96.19209993 -39.25 97.25 C-39.25 92.96 -39.25 88.67 -39.25 84.25 C-42.22 83.693125 -42.22 83.693125 -45.25 83.125 C-58.54999036 80.23369775 -74.40683251 76.01068784 -82.35644531 64.09179688 C-84.4973873 60.23341068 -84.76595485 56.99172806 -84.78125 52.55859375 C-84.7850769 51.85025894 -84.78890381 51.14192413 -84.79284668 50.41212463 C-84.79555045 48.92553269 -84.78829742 47.43889191 -84.77148438 45.95239258 C-84.75001595 43.68918098 -84.77135022 41.42913105 -84.796875 39.16601562 C-84.79423207 37.71353473 -84.7891078 36.26105579 -84.78125 34.80859375 C-84.77673828 33.50204834 -84.77222656 32.19550293 -84.76757812 30.84936523 C-83.8127831 24.20948646 -79.52004836 20.04795697 -74.5546875 15.91015625 C-61.48158487 6.4930908 -42.92470978 3.37925552 -27.25 1.25 C-26.5502002 1.15428711 -25.85040039 1.05857422 -25.12939453 0.95996094 C-16.78396995 -0.026429 -8.39166567 0.00638363 0 0 Z " fill="#10A950" transform="translate(111.25,-0.25)"/>
<path d="M0 0 C0.79824188 -0.00067474 1.59648376 -0.00134949 2.41891479 -0.00204468 C28.55269958 0.03295432 58.40609794 2.48614359 79.75 19.25 C86.68578449 26.54146575 86.08603811 34.05911389 86.0625 43.625 C86.07861328 44.92695312 86.09472656 46.22890625 86.11132812 47.5703125 C86.11536464 55.481882 86.06099679 61.17217063 80.9453125 67.47265625 C70.36474514 76.87538687 54.06315427 83.75432056 39.71875 84.3828125 C39.0690625 84.33898437 38.419375 84.29515625 37.75 84.25 C37.54246094 83.2084375 37.33492188 82.166875 37.12109375 81.09375 C32.82165764 60.66361789 23.82183422 43.13051554 10.19140625 27.2734375 C9.74643799 26.75201172 9.30146973 26.23058594 8.84301758 25.69335938 C7.56582149 24.20186553 6.27543632 22.72169566 4.984375 21.2421875 C2.53507341 17.96217873 1.21015119 15.052082 -0.25 11.25 C-0.81847656 12.80847656 -0.81847656 12.80847656 -1.3984375 14.3984375 C-3.10758558 18.37845367 -5.70068358 21.00033585 -8.875 23.875 C-25.86960013 40.1499256 -34.68656839 61.27524355 -38.25 84.25 C-52.58934968 82.84754863 -69.92088423 77.86340336 -80.25 67.25 C-83.65861657 62.12696938 -84.75955497 58.84666662 -84.78125 52.55859375 C-84.7850769 51.85025894 -84.78890381 51.14192413 -84.79284668 50.41212463 C-84.79555045 48.92553269 -84.78829742 47.43889191 -84.77148438 45.95239258 C-84.75001595 43.68918098 -84.77135022 41.42913105 -84.796875 39.16601562 C-84.79423207 37.71353473 -84.7891078 36.26105579 -84.78125 34.80859375 C-84.77673828 33.50204834 -84.77222656 32.19550293 -84.76757812 30.84936523 C-83.8127831 24.20948646 -79.52004836 20.04795697 -74.5546875 15.91015625 C-61.48158487 6.4930908 -42.92470978 3.37925552 -27.25 1.25 C-26.5502002 1.15428711 -25.85040039 1.05857422 -25.12939453 0.95996094 C-16.78396995 -0.026429 -8.39166567 0.00638363 0 0 Z " fill="#002B4F" transform="translate(111.25,-0.25)"/>
<path d="M0 0 C1.69584252 2.24350837 3.34143192 4.49562698 4.9375 6.8125 C16.49700141 20.39577168 40.98353568 24.65893281 57.95996094 26.28320312 C63.85277865 26.73788509 63.85277865 26.73788509 69.75415039 27.0534668 C74.00572495 27.31255141 76.42258853 27.61431301 80.0234375 30.01953125 C82.58716776 33.88539329 83.139646 37.20625987 83.6875 41.75 C84.05671178 44.52482148 84.48856086 47.2447325 85 50 C85.66 50.33 86.32 50.66 87 51 C86.95359375 49.91460937 86.9071875 48.82921875 86.859375 47.7109375 C86.82183513 46.26565269 86.78543736 44.82033789 86.75 43.375 C86.71648437 42.66214844 86.68296875 41.94929688 86.6484375 41.21484375 C86.5525736 35.9902614 87.62209026 33.19015522 91 29 C92.57259286 27.42740714 94.24057378 27.74507629 96.42578125 27.60546875 C133.58193646 25.08014851 133.58193646 25.08014851 164.5 6.3125 C166.12076843 4.26298178 167.54692587 2.17961119 169 0 C170.71456952 3.42913903 170.18502843 7.36223208 170.203125 11.13671875 C170.20882507 12.04952103 170.21452515 12.9623233 170.22039795 13.90278625 C170.2298562 15.83874348 170.2363852 17.77471686 170.24023438 19.71069336 C170.24990431 22.65833125 170.28090494 25.60526129 170.3125 28.55273438 C170.3190337 30.4348917 170.32428273 32.31705401 170.328125 34.19921875 C170.3404718 35.07551437 170.3528186 35.95181 170.36553955 36.85466003 C170.34239567 43.2854359 169.35902677 48.09461855 165.1953125 53.22265625 C145.08554493 71.09378932 113.51243971 73.56685532 87.79101562 73.39111328 C85.0008053 73.37500465 82.2120426 73.39109239 79.421875 73.41015625 C55.03578312 73.4382519 22.41536373 70.76974998 4 53 C-0.25154053 47.04999569 -0.54375154 42.44894873 -0.390625 35.25390625 C-0.38496521 34.24279282 -0.37930542 33.23167938 -0.37347412 32.18992615 C-0.35119521 28.98028977 -0.30101377 25.77179541 -0.25 22.5625 C-0.22992407 20.3782714 -0.21167522 18.1940252 -0.1953125 16.00976562 C-0.15135848 10.67279155 -0.0845318 5.33647739 0 0 Z " fill="#002B4F" transform="translate(27,132)"/>
<path d="M0 0 C2 2 2 2 3.24609375 5.19140625 C5.04379623 9.54569123 7.87881533 12.52950818 11.0625 15.9375 C29.80919448 36.83820383 37.85940181 60.61558922 42 88 C63.97266147 82.83524548 63.97266147 82.83524548 82 70 C83.92913345 66.81689154 83.92913345 66.81689154 85 64 C85.66 64.33 86.32 64.66 87 65 C87.09931654 70.97732771 87.17167995 76.9541688 87.21972656 82.93212891 C87.23976836 84.96313857 87.26700947 86.99409106 87.30175781 89.02490234 C87.35060414 91.95424556 87.37304343 94.882822 87.390625 97.8125 C87.42159271 99.16142334 87.42159271 99.16142334 87.45318604 100.53759766 C87.45581383 108.02015048 85.51192661 113.69333031 80.1875 119.0625 C68.42049628 128.21737816 51.82530667 133.06407936 37.17578125 134.55078125 C28.74051575 135.44026443 23.32338624 136.32331197 17.625 143 C16.79352303 144.05378598 15.97252377 145.11595475 15.1640625 146.1875 C13.21945552 148.71478704 11.79357809 150.48634813 9 152 C6.85546875 151.921875 6.85546875 151.921875 5 151 C3.98828125 149.328125 3.98828125 149.328125 3.3125 147.25 C3.08175781 146.57453125 2.85101563 145.8990625 2.61328125 145.203125 C1.41958642 140.9149474 0.87263267 136.93016076 0.84851074 132.47688293 C0.84016708 131.37905991 0.83182343 130.28123688 0.82322693 129.15014648 C0.81904251 127.95566895 0.81485809 126.76119141 0.81054688 125.53051758 C0.7978173 123.58810212 0.78508743 121.64568666 0.7723465 119.70327127 C0.75962452 117.62118964 0.74929234 115.53910827 0.73963928 113.45701027 C0.71937974 109.11678408 0.69173512 104.77662411 0.66296387 100.43644714 C0.59784709 90.44443011 0.54229928 80.45236423 0.48697662 70.460289 C0.43614337 61.293201 0.38329886 52.12613721 0.32245111 42.95910949 C0.29407676 38.64191583 0.27049103 34.32473017 0.25052643 30.0074898 C0.24037557 27.97169791 0.22799051 25.9359346 0.21458435 23.90016174 C0.19822702 21.4145523 0.18543659 18.92891599 0.17677307 16.44326782 C0.16425758 14.80922249 0.16425758 14.80922249 0.15148926 13.14216614 C0.14633553 12.19183911 0.14118179 11.24151209 0.13587189 10.26238728 C0.14659061 7.96585673 0.14659061 7.96585673 -1 6 C-0.71887936 3.99199544 -0.38932033 1.98985949 0 0 Z " fill="#11914F" transform="translate(110,9)"/>
<path d="M0 0 C2 1 2 1 3.4375 4.125 C8.2182749 12.73392307 20.10404128 17.01387117 29 20 C32.55924679 20.95166575 36.13882549 21.81366159 39.74487305 22.5690918 C44.79079648 23.68619472 44.79079648 23.68619472 47 27 C47.28291856 28.51175675 47.50350057 30.03554368 47.6875 31.5625 C49.78398934 43.92851135 55.45399296 55.67595625 61.6171875 66.49609375 C63 69 63 69 64 72 C44.88533035 71.64661955 19.1375671 67.26587119 5.15234375 53.1328125 C1.73102338 49.23428669 -0.12796984 46.83696269 -0.11352539 41.55029297 C-0.11344986 40.62948944 -0.11337433 39.70868591 -0.11329651 38.75997925 C-0.10813522 37.76410797 -0.10297394 36.76823669 -0.09765625 35.7421875 C-0.0962413 34.72399933 -0.09482635 33.70581116 -0.09336853 32.6567688 C-0.087759 29.39614965 -0.07520488 26.13559849 -0.0625 22.875 C-0.05748623 20.66796974 -0.05292311 18.46093841 -0.04882812 16.25390625 C-0.03778648 10.83591419 -0.02103905 5.41796195 0 0 Z " fill="#002B4F" transform="translate(27,73)"/>
<path d="M0 0 C0.66 0.33 1.32 0.66 2 1 C2.09931654 6.97732771 2.17167995 12.9541688 2.21972656 18.93212891 C2.23976836 20.96313857 2.26700947 22.99409106 2.30175781 25.02490234 C2.35060414 27.95424556 2.37304343 30.882822 2.390625 33.8125 C2.41127014 34.71178223 2.43191528 35.61106445 2.45318604 36.53759766 C2.45581383 44.02015048 0.51192661 49.69333031 -4.8125 55.0625 C-19.44625031 66.44774337 -42.76576401 72.29281255 -61 72 C-59.74169326 69.46382734 -58.45660884 66.94257758 -57.16015625 64.42578125 C-50.42871993 51.28885521 -47.21684671 39.57458792 -45 25 C-44.36610352 24.81937012 -43.73220703 24.63874023 -43.07910156 24.45263672 C-18.89371649 18.55572681 -18.89371649 18.55572681 -1.0625 2.625 C-0.5365625 1.325625 -0.5365625 1.325625 0 0 Z " fill="#002B4F" transform="translate(195,73)"/>
<path d="M0 0 C8 0 16 0 24 0 C25.28390625 -0.05220703 25.28390625 -0.05220703 26.59375 -0.10546875 C27.5528125 -0.13253906 28.511875 -0.15960938 29.5 -0.1875 C30.4590625 -0.22230469 31.418125 -0.25710937 32.40625 -0.29296875 C35 0 35 0 36.64379883 1.04882812 C38.70679074 4.01686258 38.36927505 7.0307369 38.29296875 10.51171875 C38.28872391 11.23994339 38.28447906 11.96816803 38.28010559 12.71846008 C38.26332733 15.04185127 38.22567855 17.3643715 38.1875 19.6875 C38.17245197 21.26365934 38.15876377 22.83983229 38.14648438 24.41601562 C38.11342685 28.27767877 38.06165194 32.13869178 38 36 C34.7 36 31.4 36 28 36 C28 26.76 28 17.52 28 8 C26.68 8 25.36 8 24 8 C24 17.24 24 26.48 24 36 C20.7 36 17.4 36 14 36 C14 26.76 14 17.52 14 8 C12.68 8 11.36 8 10 8 C10 17.24 10 26.48 10 36 C6.7 36 3.4 36 0 36 C0 24.12 0 12.24 0 0 Z " fill="#002B4F" transform="translate(3,243)"/>
<path d="M0 0 C7.59 0 15.18 0 23 0 C26.79030126 3.79030126 27.12641502 5.11157698 27.13671875 10.36132812 C27.13285156 11.04646484 27.12898438 11.73160156 27.125 12.4375 C27.12886719 13.11876953 27.13273437 13.80003906 27.13671875 14.50195312 C27.1306374 17.60648046 26.98890312 20.03329065 26 23 C26.33 23.66 26.66 24.32 27 25 C27.2037399 27.62242356 27.32356725 30.18709203 27.375 32.8125 C27.41238281 33.52470703 27.44976562 34.23691406 27.48828125 34.97070312 C27.5234375 37.08203125 27.5234375 37.08203125 27 41 C25.35 42.65 23.7 44.3 22 46 C14.74 46 7.48 46 0 46 C0 30.82 0 15.64 0 0 Z M10 8 C10 11.63 10 15.26 10 19 C12.31 19 14.62 19 17 19 C17 15.37 17 11.74 17 8 C14.69 8 12.38 8 10 8 Z M10 27 C10 30.63 10 34.26 10 38 C12.31 38 14.62 38 17 38 C17 34.37 17 30.74 17 27 C14.69 27 12.38 27 10 27 Z " fill="#002B4F" transform="translate(199,233)"/>
<path d="M0 0 C7.26 0 14.52 0 22 0 C26.10577801 4.10577801 26.46438014 4.72475884 26.55578613 10.14428711 C26.54768921 10.94229736 26.53959229 11.74030762 26.53125 12.5625 C26.5350769 13.39080322 26.53890381 14.21910645 26.54284668 15.07250977 C26.54556425 16.82081317 26.53821381 18.56915734 26.52148438 20.31738281 C26.50007082 22.99115777 26.52128944 25.66224596 26.546875 28.3359375 C26.54423169 30.03646425 26.53910665 31.73698934 26.53125 33.4375 C26.53934692 34.23551025 26.54744385 35.03352051 26.55578613 35.85571289 C26.46438014 41.27524116 26.10577801 41.89422199 22 46 C14.74 46 7.48 46 0 46 C0 30.82 0 15.64 0 0 Z M10 8 C10 17.9 10 27.8 10 38 C11.98 38 13.96 38 16 38 C16 28.1 16 18.2 16 8 C14.02 8 12.04 8 10 8 Z " fill="#002B4F" transform="translate(169,233)"/>
<path d="M0 0 C1.40668945 0.01450195 1.40668945 0.01450195 2.84179688 0.02929688 C3.81826172 0.05443359 4.79472656 0.07957031 5.80078125 0.10546875 C6.78884766 0.11900391 7.77691406 0.13253906 8.79492188 0.14648438 C11.23492356 0.18184672 13.67382844 0.23119842 16.11328125 0.29296875 C16.16274246 5.91632811 16.19902993 11.53956065 16.22314453 17.16308594 C16.23319815 19.07586879 16.24684298 20.9886363 16.26416016 22.90136719 C16.28843647 25.65173127 16.29977075 28.40189203 16.30859375 31.15234375 C16.31891632 32.00664978 16.32923889 32.86095581 16.33987427 33.7411499 C16.34002533 34.54167786 16.34017639 35.34220581 16.34033203 36.16699219 C16.34477325 36.86870544 16.34921448 37.5704187 16.35379028 38.293396 C16.06548497 40.69034316 15.4011431 42.25569054 14.11328125 44.29296875 C9.55622072 46.44303588 5.18593906 46.54261904 0.23828125 46.41796875 C-0.45007813 46.40894531 -1.1384375 46.39992188 -1.84765625 46.390625 C-3.52749713 46.36729388 -5.20715621 46.33143201 -6.88671875 46.29296875 C-6.88671875 43.32296875 -6.88671875 40.35296875 -6.88671875 37.29296875 C-2.59671875 37.29296875 1.69328125 37.29296875 6.11328125 37.29296875 C5.78328125 36.63296875 5.45328125 35.97296875 5.11328125 35.29296875 C4.20835938 35.34517578 4.20835938 35.34517578 3.28515625 35.3984375 C2.4859375 35.42550781 1.68671875 35.45257813 0.86328125 35.48046875 C-0.32007812 35.53267578 -0.32007812 35.53267578 -1.52734375 35.5859375 C-4.57587381 35.20739486 -5.71718273 34.46981623 -7.88671875 32.29296875 C-8.38842773 29.33789062 -8.38842773 29.33789062 -8.3828125 25.76171875 C-8.38345703 24.47652344 -8.38410156 23.19132812 -8.38476562 21.8671875 C-8.37437256 21.19864746 -8.36397949 20.53010742 -8.35327148 19.84130859 C-8.32431322 17.79962901 -8.332662 15.76054659 -8.34570312 13.71875 C-8.28171538 3.90401369 -8.28171538 3.90401369 -6.66503906 1.40307617 C-4.31429964 -0.06436097 -2.7617776 -0.05021414 0 0 Z M1.11328125 8.29296875 C1.11328125 14.23296875 1.11328125 20.17296875 1.11328125 26.29296875 C2.43328125 26.62296875 3.75328125 26.95296875 5.11328125 27.29296875 C6.55716696 26.07867887 6.55716696 26.07867887 6.2109375 22.4765625 C6.20426214 20.89450193 6.1923 19.31245716 6.17578125 17.73046875 C6.17126953 16.92416016 6.16675781 16.11785156 6.16210938 15.28710938 C6.15028643 13.28903119 6.13235039 11.29099092 6.11328125 9.29296875 C4.46328125 8.96296875 2.81328125 8.63296875 1.11328125 8.29296875 Z " fill="#002B4F" transform="translate(108.88671875,242.70703125)"/>
<path d="M0 0 C3.403125 -0.061875 6.80625 -0.12375 10.3125 -0.1875 C11.38153564 -0.21481201 12.45057129 -0.24212402 13.55200195 -0.27026367 C14.81983521 -0.28150269 14.81983521 -0.28150269 16.11328125 -0.29296875 C16.97735596 -0.3086792 17.84143066 -0.32438965 18.73168945 -0.34057617 C21 0 21 0 22.78710938 1.04882812 C24.65432858 4.05261553 24.36802157 7.08791898 24.29296875 10.51171875 C24.28872391 11.23994339 24.28447906 11.96816803 24.28010559 12.71846008 C24.26332733 15.04185127 24.22567855 17.3643715 24.1875 19.6875 C24.17245197 21.26365934 24.15876377 22.83983229 24.14648438 24.41601562 C24.11342685 28.27767877 24.06165194 32.13869178 24 36 C20.7 36 17.4 36 14 36 C14 26.76 14 17.52 14 8 C12.68 8 11.36 8 10 8 C10 17.24 10 26.48 10 36 C6.7 36 3.4 36 0 36 C0 24.12 0 12.24 0 0 Z " fill="#002B4F" transform="translate(73,243)"/>
<path d="M0 0 C0.78890625 -0.00386719 1.5778125 -0.00773438 2.390625 -0.01171875 C3.21046875 -0.00011719 4.0303125 0.01148438 4.875 0.0234375 C6.10476562 0.00603516 6.10476562 0.00603516 7.359375 -0.01171875 C8.54273438 -0.00591797 8.54273438 -0.00591797 9.75 0 C10.46929687 0.00338379 11.18859375 0.00676758 11.9296875 0.01025391 C14.56694446 0.53651377 15.37442941 1.15580748 16.875 3.3984375 C17.27905273 6.4453125 17.27905273 6.4453125 17.30859375 10.1484375 C17.3138356 10.80295898 17.31907745 11.45748047 17.32447815 12.13183594 C17.33089263 13.51365746 17.32956866 14.89553363 17.32104492 16.27734375 C17.31252749 18.39161274 17.34130731 20.50318505 17.37304688 22.6171875 C17.37465888 23.96093669 17.37408137 25.30469066 17.37109375 26.6484375 C17.37387329 28.48148437 17.37387329 28.48148437 17.37670898 30.3515625 C16.875 33.3984375 16.875 33.3984375 15.07836914 35.29541016 C11.76018904 36.95652237 8.49982562 36.83253792 4.875 36.7734375 C3.80765625 36.79083984 3.80765625 36.79083984 2.71875 36.80859375 C-0.25567249 36.79194586 -2.64776469 36.63734599 -5.32836914 35.29541016 C-7.96472179 32.51181727 -7.62682864 30.43046965 -7.62109375 26.6484375 C-7.62254898 25.99391602 -7.62400421 25.33939453 -7.62550354 24.66503906 C-7.62384579 23.28315778 -7.61229793 21.9012578 -7.59155273 20.51953125 C-7.56259607 18.40545158 -7.57094292 16.29388014 -7.58398438 14.1796875 C-7.57774657 12.83592532 -7.56935528 11.49217106 -7.55859375 10.1484375 C-7.54884521 8.92640625 -7.53909668 7.704375 -7.52905273 6.4453125 C-7.125 3.3984375 -7.125 3.3984375 -5.85571289 1.50146484 C-3.74759486 0.15790761 -2.49075146 0.01171724 0 0 Z M1.875 8.3984375 C1.84611486 11.54425173 1.82824077 14.69003219 1.8125 17.8359375 C1.80412109 18.73376953 1.79574219 19.63160156 1.78710938 20.55664062 C1.78388672 21.41064453 1.78066406 22.26464844 1.77734375 23.14453125 C1.77210693 23.93529053 1.76687012 24.7260498 1.76147461 25.54077148 C1.67004091 27.41436439 1.67004091 27.41436439 2.875 28.3984375 C4.525 28.3984375 6.175 28.3984375 7.875 28.3984375 C7.875 21.7984375 7.875 15.1984375 7.875 8.3984375 C5.895 8.3984375 3.915 8.3984375 1.875 8.3984375 Z " fill="#002B4F" transform="translate(136.125,242.6015625)"/>
<path d="M0 0 C0.78890625 -0.00386719 1.5778125 -0.00773438 2.390625 -0.01171875 C3.21046875 -0.00011719 4.0303125 0.01148438 4.875 0.0234375 C6.10476562 0.00603516 6.10476562 0.00603516 7.359375 -0.01171875 C8.54273438 -0.00591797 8.54273438 -0.00591797 9.75 0 C10.46929687 0.00338379 11.18859375 0.00676758 11.9296875 0.01025391 C14.56694446 0.53651377 15.37442941 1.15580748 16.875 3.3984375 C17.27905273 6.4453125 17.27905273 6.4453125 17.30859375 10.1484375 C17.3138356 10.80295898 17.31907745 11.45748047 17.32447815 12.13183594 C17.33089263 13.51365746 17.32956866 14.89553363 17.32104492 16.27734375 C17.31252749 18.39161274 17.34130731 20.50318505 17.37304688 22.6171875 C17.37465888 23.96093669 17.37408137 25.30469066 17.37109375 26.6484375 C17.37387329 28.48148437 17.37387329 28.48148437 17.37670898 30.3515625 C16.875 33.3984375 16.875 33.3984375 15.07836914 35.29541016 C11.76018904 36.95652237 8.49982562 36.83253792 4.875 36.7734375 C3.80765625 36.79083984 3.80765625 36.79083984 2.71875 36.80859375 C-0.25567249 36.79194586 -2.64776469 36.63734599 -5.32836914 35.29541016 C-7.96472179 32.51181727 -7.62682864 30.43046965 -7.62109375 26.6484375 C-7.62254898 25.99391602 -7.62400421 25.33939453 -7.62550354 24.66503906 C-7.62384579 23.28315778 -7.61229793 21.9012578 -7.59155273 20.51953125 C-7.56259607 18.40545158 -7.57094292 16.29388014 -7.58398438 14.1796875 C-7.57774657 12.83592532 -7.56935528 11.49217106 -7.55859375 10.1484375 C-7.54884521 8.92640625 -7.53909668 7.704375 -7.52905273 6.4453125 C-7.125 3.3984375 -7.125 3.3984375 -5.85571289 1.50146484 C-3.74759486 0.15790761 -2.49075146 0.01171724 0 0 Z M1.875 8.3984375 C1.84611486 11.54425173 1.82824077 14.69003219 1.8125 17.8359375 C1.80412109 18.73376953 1.79574219 19.63160156 1.78710938 20.55664062 C1.78388672 21.41064453 1.78066406 22.26464844 1.77734375 23.14453125 C1.77210693 23.93529053 1.76687012 24.7260498 1.76147461 25.54077148 C1.67004091 27.41436439 1.67004091 27.41436439 2.875 28.3984375 C4.525 28.3984375 6.175 28.3984375 7.875 28.3984375 C7.875 21.7984375 7.875 15.1984375 7.875 8.3984375 C5.895 8.3984375 3.915 8.3984375 1.875 8.3984375 Z " fill="#002B4F" transform="translate(52.125,242.6015625)"/>
<path d="M0 0 C0.33 0 0.66 0 1 0 C1.18175781 0.74765625 1.36351563 1.4953125 1.55078125 2.265625 C1.92783203 3.74289063 1.92783203 3.74289063 2.3125 5.25 C2.55613281 6.22453125 2.79976563 7.1990625 3.05078125 8.203125 C3.99652356 10.98975665 5.10708713 12.77304368 7 15 C6.51917969 15.65355469 6.03835937 16.30710938 5.54296875 16.98046875 C3.57011675 20.8412652 3.44615382 24.03939635 3.3125 28.3125 C3.27833984 29.05306641 3.24417969 29.79363281 3.20898438 30.55664062 C3.12706446 32.37058164 3.06184178 34.18526353 3 36 C2.01 35.67 1.02 35.34 0 35 C-0.53590819 32.33559769 -1.05389262 29.66963352 -1.5625 27 C-1.78969727 25.88431641 -1.78969727 25.88431641 -2.02148438 24.74609375 C-3.35367681 17.62041329 -2.41296161 11.58221571 -0.9375 4.5 C-0.67259766 3.21609375 -0.67259766 3.21609375 -0.40234375 1.90625 C-0.26957031 1.2771875 -0.13679688 0.648125 0 0 Z " fill="#B0C0BC" transform="translate(111,147)"/>
</svg>
